<?xml version="1.0" encoding="UTF-8" standalone="no"?>
<!-- Created with Inkscape (http://www.inkscape.org/) -->

<svg
   xmlns:dc="http://purl.org/dc/elements/1.1/"
   xmlns:cc="http://creativecommons.org/ns#"
   xmlns:rdf="http://www.w3.org/1999/02/22-rdf-syntax-ns#"
   xmlns:svg="http://www.w3.org/2000/svg"
   xmlns="http://www.w3.org/2000/svg"
   xmlns:sodipodi="http://sodipodi.sourceforge.net/DTD/sodipodi-0.dtd"
   xmlns:inkscape="http://www.inkscape.org/namespaces/inkscape"
   width="95"
   height="115"
   viewBox="0 0 25.135415 30.427083"
   version="1.1"
   id="svg8"
   inkscape:version="0.92.3 (2405546, 2018-03-11)"
   sodipodi:docname="stoiclogo.svg">
  <defs
     id="defs2" />
  <sodipodi:namedview
     id="base"
     pagecolor="#ffffff"
     bordercolor="#666666"
     borderopacity="1.0"
     inkscape:pageopacity="0.0"
     inkscape:pageshadow="2"
     inkscape:zoom="2.8"
     inkscape:cx="1.4185971"
     inkscape:cy="39.06379"
     inkscape:document-units="mm"
     inkscape:current-layer="layer2"
     showgrid="false"
     units="px"
     fit-margin-top="0"
     fit-margin-left="0"
     fit-margin-right="0"
     fit-margin-bottom="0"
     inkscape:window-width="1853"
     inkscape:window-height="1023"
     inkscape:window-x="67"
     inkscape:window-y="27"
     inkscape:window-maximized="1" />
  <metadata
     id="metadata5">
    <rdf:RDF>
      <cc:Work
         rdf:about="">
        <dc:format>image/svg+xml</dc:format>
        <dc:type
           rdf:resource="http://purl.org/dc/dcmitype/StillImage" />
        <dc:title></dc:title>
      </cc:Work>
    </rdf:RDF>
  </metadata>
  <g
     inkscape:label="Layer 1"
     inkscape:groupmode="layer"
     id="layer1"
     sodipodi:insensitive="true"
     transform="translate(-106.99382,-113.62486)"
     style="display:none" />
  <g
     inkscape:groupmode="layer"
     id="layer2"
     inkscape:label="Layer 2"
     transform="translate(-106.99382,-113.62486)">
    <path
       style="fill:#ffffff;stroke-width:0.02447126"
       d="m 121.84848,129.66944 c 0,-0.0135 0.0117,-0.0245 0.0259,-0.0245 0.0142,0 0.0191,0.011 0.0108,0.0245 -0.008,0.0135 -0.02,0.0245 -0.0259,0.0245 -0.006,0 -0.0108,-0.011 -0.0108,-0.0245 z m 0.52623,1.9e-4 c -0.009,-0.014 0.0107,-0.0222 0.0457,-0.0193 0.0334,0.003 0.0554,0.0137 0.0488,0.0243 -0.0168,0.0272 -0.0767,0.024 -0.0946,-0.005 z m 0.19567,-1.9e-4 c -0.008,-0.0135 -0.003,-0.0245 0.0108,-0.0245 0.0143,0 0.0259,0.011 0.0259,0.0245 0,0.0135 -0.005,0.0245 -0.0108,0.0245 -0.006,0 -0.0176,-0.011 -0.0259,-0.0245 z m 0.2984,0.009 c -0.0195,-0.0196 0.003,-0.0578 0.0334,-0.0578 0.0126,0 0.023,0.0165 0.023,0.0367 0,0.0378 -0.0289,0.0486 -0.0564,0.0211 z m -0.85359,-0.0255 c 0.0177,-0.007 0.0388,-0.006 0.0469,0.002 0.008,0.008 -0.006,0.0139 -0.0321,0.0128 -0.0285,-0.001 -0.0343,-0.007 -0.0148,-0.0148 z m -2.99472,-0.30289 c -0.26998,-0.0208 -0.74751,-0.1236 -0.98951,-0.21297 -0.034,-0.0126 -0.21407,-0.0315 -0.37318,-0.0392 -0.037,-0.002 -0.0673,-0.0123 -0.0673,-0.0233 0,-0.011 -0.0211,-0.0133 -0.0469,-0.005 -0.0708,0.0225 -0.17868,-0.0114 -0.16337,-0.0513 0.008,-0.0216 -0.004,-0.0337 -0.0353,-0.0337 -0.0265,0 -0.0482,-0.011 -0.0482,-0.0245 0,-0.0135 0.0117,-0.0245 0.0259,-0.0245 0.0143,0 0.0188,-0.0116 0.0101,-0.0257 -0.0108,-0.0175 -0.0272,-0.0163 -0.0512,0.004 -0.0283,0.0235 -0.045,0.0191 -0.0835,-0.0223 -0.0265,-0.0284 -0.0481,-0.0638 -0.0481,-0.0788 0,-0.0166 -0.0204,-0.0207 -0.0526,-0.0104 -0.0444,0.0141 -0.0497,0.01 -0.0336,-0.0289 0.0375,-0.0897 0.0426,-0.15658 0.0145,-0.19043 -0.0465,-0.056 0.005,-0.0681 0.29075,-0.0681 0.15181,0 0.28781,-0.012 0.31885,-0.0282 0.0298,-0.0155 0.0966,-0.10522 0.14846,-0.19944 0.21053,-0.38228 0.21396,-0.39289 0.24357,-0.75259 0.0298,-0.36238 0.0286,-0.37166 -0.0767,-0.59574 -0.0566,-0.1204 -0.0879,-0.15697 -0.16191,-0.1893 -0.16753,-0.0731 -0.28707,-0.0845 -0.64702,-0.0614 -0.48147,0.0309 -0.49075,0.0303 -0.76129,-0.0564 -0.22128,-0.0709 -0.24541,-0.0849 -0.31201,-0.18174 -0.0932,-0.13543 -0.10145,-0.2939 -0.0171,-0.3278 0.0452,-0.0182 0.047,-0.0224 0.0102,-0.0237 -0.0251,-8.4e-4 -0.04,-0.0151 -0.0339,-0.0321 0.006,-0.0168 -0.01,-0.0857 -0.0347,-0.15294 -0.0251,-0.0673 -0.0457,-0.14163 -0.0457,-0.16518 0,-0.0236 -0.01,-0.0428 -0.0216,-0.0428 -0.0302,0 -0.0499,-0.0877 -0.0336,-0.14993 l 0.0136,-0.0521 0.0428,0.0567 0.0428,0.0567 -0.0133,-0.0695 c -0.008,-0.0405 -0.004,-0.0635 0.01,-0.0552 0.0127,0.008 0.0425,-0.0511 0.0662,-0.13096 0.0237,-0.0799 0.0535,-0.14521 0.0661,-0.14521 0.0127,0 0.023,-0.0253 0.023,-0.0563 0,-0.031 0.01,-0.0667 0.0217,-0.0795 0.0196,-0.021 0.0708,-0.21184 0.11297,-0.4209 0.0264,-0.13102 0.0554,-0.0897 0.0336,0.0479 -0.0146,0.0925 -0.012,0.13265 0.01,0.14645 0.0226,0.0144 0.0218,0.0191 -0.003,0.0194 -0.0248,2.1e-4 -0.0292,0.0223 -0.0172,0.086 0.01,0.053 0.006,0.0857 -0.009,0.0857 -0.0139,0 -0.0227,0.0248 -0.0195,0.0551 0.004,0.0357 -0.006,0.0526 -0.0277,0.048 -0.0244,-0.005 -0.0293,0.01 -0.0179,0.0551 0.01,0.039 0.005,0.0621 -0.0119,0.0621 -0.0152,0 -0.0217,0.0152 -0.0146,0.0338 0.0169,0.044 -0.0325,0.24165 -0.0668,0.26781 -0.0186,0.0142 -0.0174,0.0239 0.004,0.0327 0.0234,0.01 0.0208,0.0293 -0.0112,0.0835 -0.04,0.0677 -0.0398,0.0726 0.003,0.10422 0.0332,0.0242 0.0411,0.0503 0.0295,0.0967 -0.009,0.0349 -0.005,0.0703 0.009,0.0787 0.0214,0.0132 0.0344,-0.0162 0.0284,-0.0643 -0.003,-0.0216 0.0957,-0.10818 0.11493,-0.10109 0.0257,0.009 0.10144,-0.0198 0.10144,-0.0393 0,-0.01 0.0385,-0.0318 0.0857,-0.0489 0.0471,-0.017 0.0857,-0.0426 0.0857,-0.0569 0,-0.0161 0.0138,-0.0144 0.0367,0.005 0.0202,0.0168 0.0367,0.0473 0.0367,0.068 0,0.0314 0.008,0.0303 0.0489,-0.007 0.0269,-0.0244 0.049,-0.0541 0.049,-0.066 0,-0.0119 0.0208,-0.0441 0.0463,-0.0714 l 0.0463,-0.0497 0.0769,0.0752 c 0.0423,0.0414 0.0919,0.0752 0.11015,0.0752 0.0183,0 0.0399,0.0174 0.0481,0.0387 0.0221,0.0575 0.018,0.0885 -0.009,0.0716 -0.0139,-0.009 -0.018,0.001 -0.01,0.0232 0.008,0.021 0.0414,0.0449 0.0742,0.0531 0.0327,0.008 0.0553,0.0274 0.0502,0.0426 -0.005,0.0156 0.0397,0.0401 0.10294,0.0561 0.0617,0.0157 0.13702,0.0362 0.16728,0.0457 0.0494,0.0154 0.0541,0.01 0.046,-0.0529 -0.005,-0.0386 -0.004,-0.0556 0.002,-0.0378 0.006,0.0178 0.0276,0.0261 0.0476,0.0185 0.029,-0.0112 0.10968,0.0142 0.14995,0.0472 0.0221,0.0181 -0.0575,0.13438 -0.0848,0.12391 -0.0725,-0.0278 -0.0213,0.0631 0.0594,0.10561 0.0303,0.0159 0.0551,0.0388 0.0551,0.0508 0,0.0401 -0.18299,8.5e-4 -0.22387,-0.048 -0.0332,-0.0396 -0.0428,-0.0418 -0.0542,-0.0122 -0.008,0.0212 0.007,0.047 0.0361,0.0627 0.0277,0.0148 0.0441,0.0419 0.0369,0.0607 -0.007,0.0188 0.016,0.0568 0.0522,0.0852 0.0513,0.0404 0.058,0.0558 0.0315,0.0722 -0.0203,0.0126 -0.054,0.008 -0.0847,-0.0108 -0.028,-0.0174 -0.082,-0.0389 -0.11985,-0.0477 -0.0481,-0.0112 -0.0796,-0.0415 -0.10424,-0.10057 -0.0245,-0.0585 -0.0632,-0.0962 -0.12588,-0.12238 -0.0498,-0.0208 -0.11069,-0.0594 -0.13531,-0.0859 -0.0588,-0.0631 -0.0782,-0.0606 -0.11234,0.0143 -0.0395,0.0867 -0.0361,0.13486 0.008,0.11782 0.0278,-0.0107 0.0367,0.004 0.0367,0.0619 0,0.0569 -0.0111,0.076 -0.044,0.076 -0.0643,0 -0.10278,-0.0488 -0.10278,-0.13025 0,-0.0608 -0.006,-0.067 -0.0367,-0.041 -0.0232,0.0192 -0.0367,0.0209 -0.0367,0.004 0,-0.0143 0.0121,-0.0335 0.0269,-0.0427 0.0151,-0.009 0.0209,-0.0469 0.0132,-0.0854 -0.008,-0.0378 -0.003,-0.0725 0.0112,-0.077 0.0137,-0.005 0.0179,-0.0265 0.009,-0.0488 -0.0488,-0.12719 -0.20522,-0.0273 -0.20306,0.12973 6.4e-4,0.0523 -0.0164,0.122 -0.038,0.155 -0.0216,0.033 -0.0349,0.0743 -0.0294,0.0919 0.005,0.0175 0.0166,0.0622 0.0247,0.0992 0.008,0.037 0.0301,0.0673 0.0489,0.0673 0.0188,0 0.0384,0.0127 0.0436,0.0282 0.005,0.0155 0.0639,0.0365 0.13052,0.0466 0.0666,0.0101 0.14588,0.0262 0.17616,0.0358 0.0425,0.0135 0.0551,0.008 0.0551,-0.0248 0,-0.0276 0.0128,-0.0373 0.037,-0.028 0.0203,0.008 0.0701,0.008 0.11052,-6.4e-4 0.0628,-0.0126 0.069,-0.0202 0.0426,-0.0525 -0.0218,-0.0267 -0.01,-0.0242 0.04,0.008 0.0796,0.0518 0.0761,0.051 0.34286,0.0821 0.10647,0.0124 0.20833,0.0169 0.22636,0.01 0.018,-0.007 0.0328,-4.2e-4 0.0328,0.0145 0,0.0149 -0.0132,0.0271 -0.0294,0.0271 -0.021,0 -0.0219,0.008 -0.003,0.0264 0.0274,0.0274 0.40438,0.0375 0.44568,0.0119 0.0358,-0.0221 0.44314,0.0147 0.44314,0.0401 0,0.0123 -0.008,0.0173 -0.0184,0.0113 -0.0344,-0.0207 -0.21415,0.0233 -0.2085,0.051 0.003,0.0152 -0.0144,0.0339 -0.0388,0.0417 -0.0292,0.009 -0.0444,0.038 -0.0444,0.0837 0,0.0668 0.008,0.0713 0.18265,0.10928 0.19971,0.0433 0.36996,0.11229 0.37217,0.15073 8.5e-4,0.0135 0.0403,0.063 0.0879,0.11012 0.0476,0.0471 0.0927,0.11616 0.10026,0.15346 0.008,0.0373 0.0234,0.0737 0.0351,0.081 0.0293,0.0181 0.0269,0.12629 -0.003,0.14488 -0.0135,0.008 -0.0245,-0.002 -0.0245,-0.023 0,-0.021 -0.0103,-0.0382 -0.0228,-0.0382 -0.0126,0 -0.0293,-0.0202 -0.0371,-0.045 -0.0226,-0.0712 -0.22121,-0.26591 -0.35561,-0.34861 -0.0676,-0.0416 -0.12284,-0.0853 -0.12284,-0.0972 0,-0.0119 -0.0167,-0.0152 -0.037,-0.007 -0.0203,0.008 -0.052,0.002 -0.0703,-0.0134 -0.0325,-0.027 -0.11291,-0.0132 -0.11291,0.0193 0,0.023 0.14716,0.14965 0.17394,0.14965 0.0122,0 0.0763,0.0261 0.1425,0.0581 0.068,0.0328 0.12966,0.0489 0.14165,0.0369 0.012,-0.012 0.0618,0.0273 0.11446,0.0903 0.0513,0.0613 0.0869,0.11788 0.0791,0.12564 -0.0152,0.0152 0.0506,0.14436 0.10107,0.19842 0.0169,0.0181 0.0245,0.0431 0.0169,0.0555 -0.022,0.0356 -0.0844,0.0262 -0.0844,-0.0128 0,-0.0194 -0.0127,-0.0431 -0.0282,-0.0527 -0.0175,-0.0108 -0.0216,-0.007 -0.0108,0.0108 0.0333,0.0539 -0.0225,0.0265 -0.0935,-0.0458 -0.0392,-0.04 -0.0891,-0.0727 -0.11079,-0.0727 -0.0217,0 -0.0624,-0.0161 -0.0906,-0.0358 -0.0282,-0.0197 -0.0576,-0.0294 -0.0655,-0.0216 -0.0209,0.0209 0.13263,0.20424 0.171,0.20424 0.0179,0 0.0326,0.0123 0.0326,0.0274 0,0.0151 0.0327,0.0646 0.0727,0.1101 0.0418,0.0477 0.0667,0.0983 0.0586,0.11947 -0.009,0.0233 2.1e-4,0.0367 0.0252,0.0367 0.0257,0 0.0393,0.0213 0.0393,0.0617 0,0.057 -0.0107,0.0512 -0.14071,-0.077 -0.15223,-0.15003 -0.31667,-0.26964 -0.33942,-0.24688 -0.0241,0.0241 0.0135,0.0633 0.0996,0.10417 0.0495,0.0235 0.0885,0.0633 0.0976,0.0995 0.008,0.0338 0.0265,0.0534 0.041,0.0445 0.0159,-0.01 0.0227,0.005 0.0176,0.0399 -0.005,0.0307 -0.0235,0.0609 -0.0422,0.0671 -0.0227,0.007 -0.0275,6.4e-4 -0.0146,-0.0202 0.0122,-0.0198 0.01,-0.0254 -0.007,-0.0151 -0.0145,0.009 -0.0658,-0.007 -0.11391,-0.0353 -0.0481,-0.0284 -0.0875,-0.0447 -0.0875,-0.0361 0,0.0261 0.0789,0.14464 0.14362,0.21568 0.0736,0.0808 0.043,0.0901 -0.0402,0.0122 l -0.0588,-0.0551 0.0282,0.0612 c 0.0155,0.0336 0.0657,0.0887 0.1116,0.12235 0.0803,0.0589 0.11144,0.12236 0.0601,0.12236 -0.0388,0 -0.269,-0.12976 -0.269,-0.15164 0,-0.0108 -0.0165,-0.0197 -0.0367,-0.0197 -0.0202,0 -0.0367,-0.0138 -0.0368,-0.0306 -5e-5,-0.0168 -0.0229,-0.068 -0.0508,-0.1138 l -0.0507,-0.0832 -0.0606,0.0606 c -0.0745,0.0745 -0.10441,0.2404 -0.0434,0.2404 0.026,0 0.0345,0.0132 0.0247,0.0387 -0.008,0.0213 -0.0149,0.0433 -0.0149,0.0489 0,0.034 -0.0493,0.002 -0.0509,-0.0326 -0.001,-0.0256 -0.007,-0.0305 -0.0143,-0.0122 -0.0183,0.0454 -0.0572,0.0371 -0.0573,-0.0122 -1.9e-4,-0.0697 -0.12025,0.0932 -0.12172,0.16518 -0.002,0.0828 -0.0613,0.2492 -0.0819,0.22862 -0.009,-0.009 -0.0165,-0.005 -0.0165,0.009 0,0.035 0.24042,0.15901 0.27132,0.13992 0.0135,-0.008 0.0389,-0.003 0.0566,0.0115 0.0436,0.0362 0.30553,0.12855 0.3836,0.13527 0.0347,0.003 0.0761,0.0135 0.092,0.0233 0.0609,0.0376 0.64734,0.0652 1.09297,0.0513 0.61277,-0.019 1.2756,-0.11781 1.46968,-0.21902 0.0828,-0.0432 0.13318,-0.0484 0.13318,-0.0139 0,0.0605 -0.3622,0.18834 -0.73265,0.25862 -0.16117,0.0306 -0.21845,0.0327 -0.27299,0.0101 -0.053,-0.022 -0.12899,-0.0215 -0.32701,0.002 -0.14189,0.0168 -0.25798,0.04 -0.25798,0.0515 0,0.0249 -0.5468,0.0218 -0.89477,-0.005 z m 0.002,-1.85818 c -0.0244,-0.027 -0.0556,-0.0491 -0.0694,-0.0491 -0.0137,0 8.5e-4,0.0275 0.0324,0.0611 0.0673,0.0717 0.10235,0.0603 0.0369,-0.012 z m -2.5334,-0.89395 c -0.017,-0.0205 -0.0373,-0.0309 -0.0451,-0.0231 -0.008,0.008 0.002,0.0244 0.0218,0.0369 0.0518,0.0328 0.0586,0.0288 0.0233,-0.0138 z m -0.0469,-0.40606 c 0.0135,-0.0253 0.0435,-0.0464 0.0666,-0.0468 0.0667,-0.001 0.12764,-0.0607 0.12723,-0.12428 -6.3e-4,-0.0935 -0.0336,-0.12404 -0.12454,-0.11535 -0.0862,0.008 -0.0951,0.0282 -0.0606,0.1364 0.013,0.0408 0.008,0.0551 -0.02,0.0551 -0.0221,0 -0.0322,0.0141 -0.0245,0.0342 0.007,0.0188 0.002,0.0413 -0.0123,0.0499 -0.014,0.009 -0.0324,-0.0122 -0.041,-0.0465 -0.009,-0.0342 -0.0309,-0.0622 -0.0497,-0.0622 -0.0362,0 -0.13193,0.0849 -0.13193,0.11705 0,0.0249 0.10277,0.0203 0.1461,-0.006 0.0244,-0.0151 0.0295,-0.0102 0.0188,0.0176 -0.0313,0.0814 0.0617,0.0738 0.10581,-0.009 z m -0.247,-0.37643 c 0,-0.0135 -0.0107,-0.008 -0.0237,0.0122 -0.013,0.0202 -0.0237,0.0477 -0.0237,0.0612 0,0.0135 0.0107,0.008 0.0237,-0.0122 0.013,-0.0202 0.0237,-0.0477 0.0237,-0.0612 z m 1.30996,3.31586 c -0.008,-0.0135 -0.003,-0.0245 0.0108,-0.0245 0.0143,0 0.0259,0.011 0.0259,0.0245 0,0.0135 -0.005,0.0245 -0.0108,0.0245 -0.006,0 -0.0176,-0.011 -0.0259,-0.0245 z m 4.02551,-0.18303 c 0,-0.0353 0.16476,-0.13509 0.22306,-0.13509 0.0411,0 -0.0493,0.0954 -0.13002,0.1371 -0.0831,0.043 -0.093,0.0427 -0.093,-0.002 z m -0.24326,-0.21082 c -0.0585,-0.0585 -0.0837,-0.0698 -0.10883,-0.0489 -0.0262,0.0218 -0.0304,0.0149 -0.0209,-0.0346 0.0164,-0.0858 0.0447,-0.0958 0.10384,-0.0366 0.0279,0.0279 0.0613,0.0442 0.0743,0.0361 0.013,-0.008 0.0236,0.0127 0.0236,0.046 0,0.0333 0.0132,0.065 0.0294,0.0704 0.0211,0.007 0.0217,0.0145 0.002,0.0267 -0.015,0.009 -0.0616,-0.0173 -0.1034,-0.0592 z m -0.21976,0.0125 c 10e-4,-0.0285 0.007,-0.0343 0.0148,-0.0148 0.007,0.0177 0.006,0.0388 -0.002,0.0469 -0.008,0.008 -0.0139,-0.006 -0.0129,-0.0321 z m 0.70774,0.002 c 0,-0.0202 0.011,-0.0367 0.0245,-0.0367 0.0135,0 0.0245,0.0165 0.0245,0.0367 0,0.0202 -0.011,0.0367 -0.0245,0.0367 -0.0135,0 -0.0245,-0.0165 -0.0245,-0.0367 z m -0.88097,-0.023 c 0,-0.0194 0.0104,-0.0417 0.023,-0.0495 0.0126,-0.008 0.0213,0.008 0.0193,0.0353 -0.004,0.0559 -0.0422,0.0687 -0.0422,0.0142 z m -1.47439,-0.0812 c -0.037,-0.0229 -0.0673,-0.0598 -0.0673,-0.082 0,-0.0222 -0.0172,-0.0545 -0.0382,-0.072 -0.0305,-0.0253 -0.13313,-0.20654 -0.13313,-0.2351 0,-0.004 0.0165,-6.3e-4 0.0367,0.007 0.0243,0.009 0.0372,-10e-4 0.0383,-0.0314 10e-4,-0.0377 0.005,-0.036 0.0238,0.01 0.0359,0.0894 0.21889,0.34832 0.24616,0.34832 0.0138,0 0.0174,0.0122 0.008,0.0272 -0.009,0.015 -0.002,0.0368 0.0169,0.0486 0.0257,0.0163 0.0221,0.0213 -0.0152,0.0211 -0.0269,-1.9e-4 -0.0792,-0.0191 -0.11624,-0.042 z m 2.40623,0.003 c -0.006,-0.1502 -0.24754,-0.50086 -0.24628,-0.35687 4.3e-4,0.0481 0.0563,0.21697 0.0794,0.24009 0.0226,0.0226 -0.12309,0.13827 -0.15907,0.12628 -0.0168,-0.006 -0.0307,-0.0313 -0.0307,-0.0571 -8e-5,-0.0358 -0.0151,-0.0454 -0.0631,-0.0406 -0.0454,0.005 -0.0718,-0.0101 -0.0945,-0.0524 -0.0284,-0.053 -0.0234,-0.0699 0.0508,-0.1706 0.0453,-0.0615 0.096,-0.11221 0.11286,-0.11273 0.0383,-0.001 0.0375,-0.0221 -0.003,-0.096 -0.0178,-0.0321 -0.0386,-0.0482 -0.0463,-0.0358 -0.008,0.0124 -0.0931,0.0193 -0.18995,0.0153 -0.16597,-0.007 -0.17527,-0.004 -0.16313,0.042 0.007,0.0271 0.003,0.0431 -0.009,0.0355 -0.0122,-0.008 -0.0222,0.003 -0.0222,0.0244 0,0.0512 -0.0397,0.0486 -0.0599,-0.004 -0.01,-0.0255 -10e-4,-0.0532 0.0219,-0.07 0.0209,-0.0153 0.038,-0.0447 0.038,-0.0653 0,-0.0495 0.0762,-0.0776 0.10167,-0.0375 0.0155,0.0245 0.02,0.0246 0.0203,8.4e-4 1.8e-4,-0.0168 0.011,-0.0306 0.0241,-0.0306 0.013,0 0.0174,0.0165 0.01,0.0367 -0.0165,0.043 0.029,0.0499 0.0548,0.008 0.01,-0.0161 -0.006,-0.0477 -0.0371,-0.0727 -0.0566,-0.0458 -0.0505,-0.10229 0.009,-0.0796 0.0209,0.008 0.0321,-0.003 0.0298,-0.029 -0.006,-0.0631 0.0503,-0.0696 0.0824,-0.01 0.0237,0.0444 0.0203,0.0583 -0.0218,0.0878 -0.0284,0.0199 -0.0441,0.0506 -0.0362,0.0711 0.0194,0.0505 0.0575,0.045 0.0575,-0.008 0,-0.0244 0.0203,-0.0661 0.0451,-0.0927 0.0472,-0.0507 0.0843,-0.18105 0.0514,-0.18105 -0.0105,0 -0.0244,0.0138 -0.031,0.0306 -0.007,0.0168 -0.0198,-0.004 -0.0293,-0.0474 -0.009,-0.0429 -0.0338,-0.0843 -0.054,-0.092 -0.0287,-0.011 -0.0333,-6.4e-4 -0.0213,0.0474 0.009,0.0355 0.005,0.0615 -0.01,0.0615 -0.0137,0 -0.0249,-0.0162 -0.0249,-0.0359 0,-0.0219 -0.0144,-0.0304 -0.0367,-0.0219 -0.0202,0.008 -0.0367,0.0441 -0.0367,0.0808 0,0.043 -0.0131,0.0667 -0.0367,0.0667 -0.0202,0 -0.0367,-0.0135 -0.0367,-0.03 0,-0.035 -0.0677,-0.0662 -0.10009,-0.0461 -0.0123,0.008 -0.0223,0.0414 -0.0223,0.0751 0,0.0775 -0.0441,0.16192 -0.0746,0.14302 -0.0128,-0.008 -0.0234,-0.0495 -0.0236,-0.0925 -2.1e-4,-0.054 -0.007,-0.0677 -0.0217,-0.0444 -0.0118,0.0185 -0.0328,0.0266 -0.0469,0.018 -0.014,-0.009 -0.0324,-0.005 -0.0409,0.009 -0.0216,0.0349 -0.0614,0.031 -0.0614,-0.006 0,-0.0397 0.0664,-0.0807 0.16598,-0.1026 0.0436,-0.01 0.0787,-0.0328 0.0787,-0.0521 0,-0.0191 0.011,-0.0348 0.0245,-0.0348 0.0135,0 0.0245,-0.0187 0.0245,-0.0416 0,-0.0324 -0.007,-0.0351 -0.0294,-0.0122 -0.0459,0.0459 -0.10723,0.0346 -0.13895,-0.0257 -0.0187,-0.0355 -0.0242,-0.0388 -0.0156,-0.009 0.0111,0.0379 0.003,0.0437 -0.0482,0.034 -0.0414,-0.008 -0.0615,-8.5e-4 -0.0615,0.0215 0,0.0183 -0.0173,0.0333 -0.0384,0.0333 -0.0577,0 -0.0335,-0.1054 0.0307,-0.13359 0.0556,-0.0244 0.11318,-0.11986 0.0877,-0.14539 -0.0302,-0.0302 -0.078,-0.0137 -0.0643,0.022 0.008,0.0202 0.003,0.0367 -0.0116,0.0367 -0.0549,0 -0.055,-0.0553 -1.8e-4,-0.13666 0.0423,-0.0627 0.0702,-0.0818 0.10626,-0.0724 0.0269,0.007 0.0682,0.0128 0.0918,0.013 0.0293,1.8e-4 0.0428,0.0197 0.0428,0.0615 0,0.0336 -0.0117,0.0612 -0.0259,0.0612 -0.0142,0 -0.0191,-0.0111 -0.0107,-0.0247 0.008,-0.0136 -0.005,-0.032 -0.0292,-0.041 -0.0244,-0.009 -0.0522,-0.0281 -0.0617,-0.0425 -0.0119,-0.0179 -0.0268,-0.0166 -0.0477,0.004 -0.0242,0.0242 -0.022,0.0304 0.0109,0.0304 0.0283,0 0.0395,0.0174 0.0355,0.0551 -0.005,0.0476 0.004,0.054 0.0673,0.0471 0.0402,-0.004 0.0879,-0.0202 0.10587,-0.0351 0.0241,-0.0199 0.0373,-0.0198 0.0499,6.3e-4 0.0107,0.0173 0.0303,0.0196 0.052,0.006 0.0192,-0.0119 0.067,-0.0152 0.10615,-0.007 0.0654,0.0131 0.0698,0.01 0.0534,-0.0419 -0.0153,-0.0481 -0.0107,-0.0543 0.0323,-0.043 0.0742,0.0194 0.0849,-0.0446 0.0151,-0.0903 -0.0328,-0.0215 -0.0597,-0.0549 -0.0597,-0.0741 0,-0.0746 -0.0546,-0.15594 -0.0948,-0.14133 -0.0347,0.0126 -0.0343,0.008 0.003,-0.0345 0.0322,-0.0368 0.0776,-0.0501 0.18354,-0.0539 0.18215,-0.006 0.29977,-0.0279 0.29977,-0.0546 0,-0.0117 0.0318,-0.0175 0.0707,-0.013 0.0795,0.009 0.22293,-0.0426 0.22293,-0.0807 0,-0.0137 0.0164,-0.0186 0.0364,-0.0109 0.02,0.008 0.0723,6.4e-4 0.11624,-0.0159 0.0439,-0.0165 0.12389,-0.039 0.17772,-0.0501 0.20929,-0.0433 0.24614,-0.0566 0.28754,-0.10382 0.0236,-0.0269 0.0428,-0.0362 0.0428,-0.0207 0,0.0155 0.0227,0.0282 0.0504,0.0282 0.0277,0 0.0436,-0.011 0.0353,-0.0245 -0.008,-0.0135 -8.4e-4,-0.0246 0.0169,-0.0248 0.0254,-2.2e-4 0.0252,-0.005 -0.001,-0.0215 -0.0183,-0.0116 -0.0541,-0.0157 -0.0795,-0.009 -0.0349,0.009 -0.0462,-10e-4 -0.0462,-0.0414 0,-0.0417 0.0104,-0.0502 0.0474,-0.0384 0.0556,0.0177 0.14836,-0.0333 0.14836,-0.0815 0,-0.0239 0.0246,-0.0306 0.0853,-0.0235 0.0469,0.005 0.0893,-0.001 0.0942,-0.0157 0.005,-0.0141 0.0137,0.0144 0.0196,0.0634 0.008,0.0656 0.002,0.0858 -0.0208,0.0769 -0.0173,-0.007 -0.0315,-0.0219 -0.0315,-0.0339 0,-0.012 -0.0182,-0.0219 -0.0405,-0.0219 -0.0368,0 -0.037,0.004 -0.002,0.0428 0.0336,0.0376 0.0339,0.0468 0.002,0.0759 -0.0421,0.0386 -0.25251,0.12276 -0.46109,0.18436 -0.41307,0.122 -0.6406,0.19986 -0.68006,0.2327 -0.0241,0.0201 -0.0874,0.11968 -0.14071,0.2214 -0.1065,0.20325 -0.11925,0.30685 -0.0712,0.57818 0.0602,0.3395 0.10779,0.41348 0.25476,0.39572 0.0316,-0.004 0.0507,0.0109 0.056,0.0431 0.007,0.0439 0.005,0.0446 -0.0181,0.007 -0.0253,-0.0406 -0.0981,-0.0355 -0.0981,0.007 0,0.0116 0.0166,0.0147 0.037,0.007 0.0265,-0.0102 0.0327,-0.003 0.0219,0.0252 -0.011,0.0287 -8.5e-4,0.0394 0.0372,0.0394 0.0288,0 0.0583,0.0154 0.0655,0.0343 0.007,0.0189 0.0533,0.0418 0.10241,0.0511 0.10078,0.0189 0.2421,0.10908 0.20695,0.13205 -0.0127,0.008 -0.0295,0.0316 -0.0373,0.0518 -0.011,0.0284 -0.0179,0.0248 -0.0303,-0.0155 -0.0246,-0.0803 -0.11438,-0.0485 -0.0939,0.0332 0.0141,0.0561 0.0111,0.0588 -0.0369,0.0331 -0.0435,-0.0233 -0.0523,-0.0212 -0.0523,0.0122 0,0.0249 -0.0134,0.0351 -0.0351,0.0267 -0.0226,-0.009 -0.0437,0.01 -0.0592,0.0524 -0.0209,0.0571 -0.0244,0.0589 -0.0261,0.0137 z m -0.26864,-0.14871 c -0.0235,-0.0404 -0.0255,-0.0398 -0.0262,0.007 -8.5e-4,0.0566 0.0302,0.10081 0.0433,0.0616 0.005,-0.0138 -0.003,-0.0448 -0.0171,-0.0688 z m 0.44694,-0.15922 c -0.021,-0.034 -0.0566,0.005 -0.0412,0.0449 0.0114,0.0297 0.0188,0.0311 0.034,0.007 0.0107,-0.0173 0.0139,-0.0404 0.007,-0.0514 z m -0.53886,-0.32607 c -0.008,-0.0208 -0.0197,-0.0325 -0.0262,-0.0261 -0.006,0.006 -0.004,0.0234 0.004,0.0378 0.0241,0.039 0.0382,0.0315 0.0217,-0.0117 z m -0.30701,-0.34591 c -0.0118,-0.0564 -0.0556,-0.0493 -0.0641,0.0104 -0.006,0.0421 0.001,0.0514 0.0318,0.0397 0.0218,-0.008 0.0363,-0.0309 0.0323,-0.0501 z m -0.21533,-0.13023 c 0,-0.0135 -0.0117,-0.0245 -0.0259,-0.0245 -0.0142,0 -0.0191,0.011 -0.0108,0.0245 0.008,0.0135 0.02,0.0245 0.0259,0.0245 0.006,0 0.0108,-0.011 0.0108,-0.0245 z m 0.12236,-0.0115 c 0,-0.0218 -0.0144,-0.0304 -0.0366,-0.0219 -0.0201,0.008 -0.0305,0.0239 -0.023,0.0359 0.0213,0.0345 0.0596,0.0255 0.0596,-0.014 z m 0.39154,-0.0229 c 0,-0.0468 -0.01,-0.0563 -0.0489,-0.0461 -0.0562,0.0147 -0.0612,0.034 -0.0196,0.0756 0.0452,0.0452 0.0685,0.0351 0.0685,-0.0295 z m -1.73746,1.11115 c 0,-0.0135 0.011,-0.0245 0.0245,-0.0245 0.0135,0 0.0245,-0.011 0.0245,-0.0245 0,-0.0135 -0.0368,-0.0245 -0.0817,-0.0245 -0.0796,0 -0.12759,-0.0379 -0.26088,-0.20635 -0.0346,-0.0437 -0.0335,-0.0447 0.0184,-0.0171 0.0303,0.0161 0.0551,0.04 0.0551,0.053 0,0.013 0.016,0.0236 0.0356,0.0236 0.0196,0 0.0631,0.0275 0.0968,0.0612 0.0336,0.0336 0.0727,0.0612 0.0868,0.0612 0.0366,0 0.0318,-0.0487 -0.005,-0.0503 -0.0168,-6.4e-4 -0.0636,-0.0529 -0.104,-0.11595 -0.0404,-0.063 -0.13123,-0.15759 -0.20189,-0.21011 -0.10886,-0.0809 -0.12847,-0.10759 -0.12847,-0.17471 0,-0.10975 0.0446,-0.14165 0.14782,-0.10567 0.11976,0.0417 0.25718,0.21623 0.1703,0.21623 -0.0135,0 -0.0245,-0.009 -0.0245,-0.0201 0,-0.0316 -0.1935,-0.15017 -0.20769,-0.12721 -0.0215,0.0347 0.0149,0.0983 0.0574,0.10032 0.0246,0.001 0.0285,0.007 0.0102,0.0141 -0.0192,0.008 -0.002,0.038 0.0483,0.0837 0.0854,0.078 0.21426,0.099 0.21426,0.0348 0,-0.0202 -0.011,-0.0367 -0.0245,-0.0367 -0.0135,0 -0.0245,-0.011 -0.0245,-0.0245 0,-0.0446 0.0402,-0.0254 0.0722,0.0344 0.0263,0.049 0.0254,0.0713 -0.005,0.13265 -0.0356,0.0713 -0.0348,0.0742 0.0238,0.0889 0.0378,0.009 0.0558,0.0277 0.0478,0.0486 -0.007,0.0184 0.008,0.0523 0.0337,0.0755 0.0449,0.0406 0.0462,0.0394 0.0367,-0.0355 -0.009,-0.0684 -0.004,-0.0758 0.0392,-0.0621 0.0695,0.0221 0.16789,-0.008 0.16789,-0.0505 0,-0.0199 0.008,-0.0339 0.0184,-0.031 0.0241,0.007 0.13505,-0.054 0.16119,-0.0884 0.0123,-0.0161 0.016,-0.006 0.009,0.025 -0.009,0.0412 -0.002,0.0495 0.0346,0.04 0.0632,-0.0165 0.0574,0.0185 -0.0163,0.098 -0.0716,0.0773 -0.1084,0.0853 -0.11085,0.0242 -0.001,-0.0363 -0.005,-0.0354 -0.0211,0.006 -0.0111,0.0281 -0.009,0.0556 0.005,0.0646 0.0134,0.009 0.0176,0.0264 0.009,0.0396 -0.01,0.0155 -0.0544,0.0149 -0.12736,-0.002 -0.0884,-0.0202 -0.11682,-0.0189 -0.13243,0.006 -0.0109,0.0177 -0.0321,0.0246 -0.0471,0.0153 -0.0159,-0.01 -0.0372,0.009 -0.0511,0.0458 -0.0232,0.061 -0.074,0.0872 -0.074,0.0382 z m -0.0245,-0.35628 c 0,-0.021 -0.011,-0.0313 -0.0245,-0.023 -0.0135,0.008 -0.0245,0.0255 -0.0245,0.0382 0,0.0127 0.011,0.023 0.0245,0.023 0.0135,0 0.0245,-0.0172 0.0245,-0.0382 z m -2.68991,0.29307 c 0.001,-0.0285 0.007,-0.0343 0.0148,-0.0148 0.007,0.0177 0.006,0.0388 -0.002,0.0469 -0.008,0.008 -0.0139,-0.006 -0.0129,-0.0321 z m 1.87218,-0.12378 c -0.0129,-0.0336 -0.009,-0.0351 0.0218,-0.009 0.0425,0.0352 0.0469,0.0494 0.0154,0.0494 -0.012,0 -0.0288,-0.0181 -0.0373,-0.0402 z m 2.26153,-0.15416 c 0,-0.0127 0.0105,-0.0295 0.0234,-0.0375 0.0129,-0.008 0.0172,-0.0306 0.01,-0.0504 -0.008,-0.0198 -0.002,-0.0359 0.0115,-0.0359 0.0139,0 0.029,0.0191 0.0335,0.0425 0.007,0.0375 0.015,0.0357 0.0659,-0.0151 0.0461,-0.0461 0.0619,-0.051 0.0789,-0.0242 0.0333,0.0526 0.0119,0.0812 -0.0652,0.0871 -0.0391,0.003 -0.075,0.0169 -0.0797,0.031 -0.0106,0.0318 -0.0778,0.0339 -0.0778,0.002 z m -2.22688,-0.0702 c 0,-0.0131 0.0174,-0.0306 0.0387,-0.0388 0.0238,-0.009 0.035,-0.004 0.0291,0.0142 -0.0122,0.0366 -0.0678,0.0567 -0.0678,0.0246 z m 1.51721,-0.0903 c 0.0244,-0.0294 0.024,-0.0453 -0.002,-0.0795 -0.0297,-0.0395 -0.0289,-0.0398 0.0101,-0.004 0.0431,0.0391 0.0336,0.12059 -0.014,0.12059 -0.0143,0 -0.0119,-0.0155 0.006,-0.0367 z m 0.33544,-0.0364 c 0.007,-0.0268 0.023,-0.0423 0.0355,-0.0346 0.0125,0.008 0.0391,6.4e-4 0.059,-0.016 0.0199,-0.0165 0.0442,-0.022 0.054,-0.0122 0.0211,0.0212 -0.0838,0.1115 -0.12948,0.1115 -0.0196,0 -0.0268,-0.0186 -0.019,-0.0487 z m -0.50673,-0.0982 c -0.0221,-0.0143 -0.0251,-0.0239 -0.008,-0.0241 0.016,-1.8e-4 0.0359,0.0106 0.0443,0.0241 0.0188,0.0304 0.0103,0.0304 -0.0367,0 z m 0.29365,0.003 c 0,-0.0135 0.011,-0.0313 0.0245,-0.0396 0.0135,-0.008 0.0245,-0.004 0.0245,0.009 0,0.0135 -0.011,0.0313 -0.0245,0.0396 -0.0135,0.008 -0.0245,0.004 -0.0245,-0.009 z m -0.41601,-0.0643 c 0,-0.029 0.10179,-0.10987 0.13834,-0.10987 0.0493,0 0.0398,0.0436 -0.016,0.0734 -0.0269,0.0144 -0.0489,0.019 -0.0489,0.0101 0,-0.009 -0.0165,-0.002 -0.0367,0.0144 -0.0202,0.0167 -0.0367,0.0221 -0.0367,0.012 z m -0.84018,-0.15066 c -0.0453,-0.0453 0.0212,-0.2284 0.083,-0.2284 0.0343,0 0.028,0.0676 -0.008,0.08 -0.0383,0.0134 0.0462,0.11573 0.0956,0.11573 0.0181,0 0.0329,0.011 0.0329,0.0245 0,0.027 -0.17794,0.0341 -0.20393,0.008 z m 0.34114,-0.24263 c -0.023,-0.0599 -0.018,-0.0678 0.0219,-0.0347 0.0407,0.0338 0.0487,0.0734 0.0149,0.0734 -0.012,0 -0.0285,-0.0174 -0.0367,-0.0387 z m 0.86931,0.006 c -0.0515,-0.062 0.0119,-0.21187 0.0895,-0.21187 0.0208,0 0.0306,0.007 0.0217,0.0161 -0.009,0.009 -0.003,0.0317 0.0127,0.0508 0.0223,0.0268 0.0215,0.0392 -0.003,0.0546 -0.0177,0.0109 -0.0246,0.0321 -0.0153,0.0471 0.009,0.0153 8.5e-4,0.0272 -0.0193,0.0272 -0.0199,0 -0.0402,0.0122 -0.0452,0.0272 -0.006,0.0172 -0.0207,0.0131 -0.0408,-0.0111 z m 0.0702,-0.10582 c 0,-0.0359 -0.008,-0.0577 -0.0168,-0.0485 -0.0246,0.0246 -0.0274,0.1137 -0.004,0.1137 0.0112,0 0.0204,-0.0294 0.0204,-0.0652 z m -1.21899,-0.0388 c 0.004,-0.0437 0.0187,-0.0777 0.0321,-0.0755 0.0135,0.002 0.0379,-0.007 0.0543,-0.0207 0.0528,-0.0439 0.235,-0.0499 0.28834,-0.01 0.0543,0.041 0.0573,0.0401 -0.14685,0.0468 -0.1303,0.004 -0.19709,0.0435 -0.17445,0.10251 0.008,0.0221 -6.3e-4,0.0361 -0.0236,0.0361 -0.0276,0 -0.0355,-0.0211 -0.0298,-0.0795 z m 0.54396,0.0309 c 0.003,-0.0431 0.0877,-0.0661 0.0877,-0.0239 0,0.0159 -0.0158,0.0228 -0.0352,0.0154 -0.0194,-0.007 -0.0397,-4.2e-4 -0.0452,0.0157 -0.006,0.0161 -0.009,0.0129 -0.007,-0.007 z m 0.13915,-0.0585 c -0.0221,-0.0266 -0.0165,-0.0367 0.0265,-0.048 0.0581,-0.0152 0.10212,0.007 0.0504,0.026 -0.0169,0.006 -0.0245,0.0211 -0.0169,0.0334 0.022,0.0356 -0.0291,0.0259 -0.06,-0.0113 z m 0.18105,-0.0152 c 0.008,-0.0135 0.0261,-0.0245 0.0396,-0.0245 0.0135,0 0.0177,0.011 0.009,0.0245 -0.008,0.0135 -0.0261,0.0245 -0.0396,0.0245 -0.0135,0 -0.0177,-0.011 -0.009,-0.0245 z m -0.39154,-0.0979 c -0.008,-0.0135 -0.003,-0.0245 0.0108,-0.0245 0.0143,0 0.0259,0.011 0.0259,0.0245 0,0.0135 -0.005,0.0245 -0.0108,0.0245 -0.006,0 -0.0176,-0.011 -0.0259,-0.0245 z m 1.22356,-0.0245 c 0.008,-0.0135 0.0316,-0.0245 0.0518,-0.0245 0.0202,0 0.0299,0.011 0.0216,0.0245 -0.008,0.0135 -0.0316,0.0245 -0.0518,0.0245 -0.0202,0 -0.0299,-0.011 -0.0216,-0.0245 z m -2.06782,-0.46495 c 0,-0.0135 0.0117,-0.0245 0.0259,-0.0245 0.0142,0 0.0191,0.011 0.0108,0.0245 -0.008,0.0135 -0.02,0.0245 -0.0259,0.0245 -0.006,0 -0.0108,-0.011 -0.0108,-0.0245 z m -2.20241,-0.31819 c 0,-0.0135 0.011,-0.0245 0.0245,-0.0245 0.0135,0 0.0245,0.011 0.0245,0.0245 0,0.0135 -0.011,0.0245 -0.0245,0.0245 -0.0135,0 -0.0245,-0.011 -0.0245,-0.0245 z m 6.43096,-0.21982 c 0.0229,-0.0401 0.0527,-0.0719 0.0662,-0.0705 0.0654,0.007 0.0775,-0.0113 0.0775,-0.11425 0,-0.061 0.0142,-0.12434 0.0316,-0.14071 0.0255,-0.024 0.0293,-0.0179 0.0195,0.0314 -0.007,0.0336 -0.021,0.0824 -0.0318,0.10825 -0.0194,0.0465 -0.019,0.0465 0.0297,0 0.0271,-0.0259 0.0449,-0.0553 0.0395,-0.0654 -0.005,-0.0101 0.003,-0.0184 0.0187,-0.0184 0.0157,0 0.0223,-0.0163 0.0147,-0.0361 -0.0168,-0.0436 0.0484,-0.2086 0.0824,-0.2086 0.0133,0 0.0241,-0.022 0.0241,-0.0489 0,-0.0269 0.0156,-0.0489 0.0347,-0.0489 0.0191,0 0.0402,-0.0138 0.047,-0.0306 0.007,-0.0168 0.0132,-0.006 0.0143,0.0239 0.001,0.0299 -0.0192,0.0892 -0.045,0.13167 -0.0258,0.0425 -0.0416,0.0912 -0.035,0.10823 0.007,0.0171 -10e-4,0.0394 -0.018,0.0495 -0.0191,0.0118 -0.0236,0.008 -0.0125,-0.01 0.01,-0.0155 0.007,-0.0282 -0.006,-0.0282 -0.0127,0 -0.0286,0.0212 -0.0354,0.0471 -0.009,0.0351 -0.002,0.044 0.0277,0.0347 0.022,-0.007 -0.001,0.0243 -0.0517,0.0691 -0.0505,0.0448 -0.0918,0.0896 -0.0918,0.0996 0,0.0484 -0.17152,0.18993 -0.23012,0.18993 -0.007,0 0.006,-0.0328 0.0294,-0.073 z m -0.0684,-0.0508 c 0,-0.0142 0.011,-0.0191 0.0245,-0.0108 0.0135,0.008 0.0245,0.02 0.0245,0.0259 0,0.006 -0.011,0.0108 -0.0245,0.0108 -0.0135,0 -0.0245,-0.0117 -0.0245,-0.0259 z m -0.0236,-0.11503 c 4.3e-4,-0.01 0.0221,-0.0622 0.0481,-0.116 l 0.0473,-0.0979 8.5e-4,0.0741 c 4.2e-4,0.0446 -0.0186,0.0908 -0.0481,0.116 -0.0269,0.023 -0.0486,0.0338 -0.0481,0.0238 z m 0.13207,-0.009 c -0.009,-0.015 -0.002,-0.0368 0.0169,-0.0486 0.0558,-0.0354 0.0737,-0.025 0.046,0.0268 -0.0301,0.0562 -0.0395,0.0595 -0.0629,0.0217 z m -6.48214,-0.02 c -0.008,-0.0125 -0.003,-0.0297 0.0108,-0.0382 0.0137,-0.008 0.0249,0.002 0.0249,0.0228 0,0.043 -0.0147,0.0493 -0.0357,0.0154 z m 4.64849,-0.0591 c -0.0404,-0.0313 -0.22758,-0.15337 -0.41601,-0.2713 -0.45021,-0.28177 -0.78011,-0.51995 -1.053,-0.76024 -0.44546,-0.39224 -1.84249,-1.6966 -2.14266,-2.00053 -0.17119,-0.17333 -0.32801,-0.312 -0.35284,-0.312 -0.0246,0 -0.0373,-0.007 -0.0283,-0.0164 0.009,-0.009 -8.4e-4,-0.0426 -0.0217,-0.0745 -0.0212,-0.0323 -0.0314,-0.0794 -0.0229,-0.10596 0.0124,-0.039 0.004,-0.0478 -0.0477,-0.0478 -0.0389,0 -0.0628,0.0137 -0.0628,0.0358 0,0.0311 -0.0691,0.0865 -0.1079,0.0865 -0.007,0 -0.003,-0.0278 0.0103,-0.0619 0.0205,-0.0538 0.0153,-0.0656 -0.0396,-0.0906 -0.0558,-0.0254 -0.0683,-0.0219 -0.10772,0.0304 l -0.0446,0.0592 -0.0502,-0.0603 c -0.0276,-0.0332 -0.0506,-0.0508 -0.051,-0.0392 -4.3e-4,0.0116 -0.0302,0.002 -0.066,-0.0216 -0.052,-0.0341 -0.0979,-0.04 -0.22636,-0.0291 -0.0886,0.007 -0.19418,0.0309 -0.23456,0.052 -0.0404,0.0211 -0.10124,0.0385 -0.13526,0.0385 -0.034,8e-5 -0.0836,0.0147 -0.11012,0.0324 -0.0266,0.0178 -0.0992,0.0512 -0.16154,0.0743 -0.0849,0.0315 -0.15819,0.0916 -0.29234,0.23972 -0.18352,0.2026 -0.34127,0.41246 -0.37385,0.49737 -0.0174,0.0453 -0.0202,0.0446 -0.0532,-0.0125 -0.12781,-0.22133 -0.16394,-0.34173 -0.10256,-0.34173 0.0173,0 0.0503,-0.0319 0.0733,-0.0708 0.0536,-0.0908 0.20883,-0.24927 0.28352,-0.28954 0.0318,-0.0172 0.0979,-0.0313 0.14683,-0.0316 0.0489,-1.8e-4 0.10549,-0.0112 0.12568,-0.0245 0.0326,-0.0214 0.0326,-0.0269 0,-0.0492 -0.0202,-0.0138 -0.067,-0.0317 -0.104,-0.0398 -0.037,-0.008 -0.0673,-0.023 -0.0673,-0.0332 0,-0.0354 0.11952,-0.0967 0.21251,-0.10903 0.0514,-0.007 0.15945,-0.0239 0.24021,-0.0381 0.0807,-0.0142 0.18867,-0.0313 0.23982,-0.0381 0.0511,-0.007 0.12069,-0.0229 0.15454,-0.0358 0.0338,-0.0129 0.13726,-0.0234 0.2298,-0.0234 0.0962,0 0.17541,-0.0116 0.18494,-0.027 0.01,-0.0162 0.0304,0.001 0.0509,0.0436 0.0579,0.11959 0.17447,0.16439 0.38152,0.14665 0.31019,-0.0266 0.4534,-0.0654 0.52981,-0.14353 l 0.0696,-0.0711 0.0432,0.091 c 0.0396,0.0834 0.04,0.0963 0.005,0.15416 -0.0278,0.0456 -0.0552,0.061 -0.0993,0.0555 -0.0335,-0.004 -0.0958,0.0104 -0.13834,0.0324 -0.0426,0.022 -0.0835,0.034 -0.0909,0.0265 -0.007,-0.007 0.0129,-0.0248 0.0451,-0.0386 0.0503,-0.0215 0.0464,-0.023 -0.027,-0.0102 -0.10559,0.0184 -0.14736,0.0526 -0.1,0.0819 0.0188,0.0116 0.12884,0.0397 0.24451,0.0625 0.23959,0.0471 0.63999,0.15799 0.67269,0.18634 0.04,0.0347 -0.10932,0.0527 -0.29612,0.0358 -0.21429,-0.0194 -0.36404,-0.0655 -0.48937,-0.15054 -0.0911,-0.0618 -0.13143,-0.0661 -0.14823,-0.0157 -0.0116,0.0348 0.0706,0.11228 0.23907,0.22553 0.1485,0.0998 0.24626,0.17462 0.5071,0.38807 0.10457,0.0856 0.22317,0.18208 0.26354,0.21445 0.0404,0.0324 0.10646,0.0863 0.14683,0.11975 0.14503,0.12032 0.30344,0.23211 0.3289,0.23211 0.0143,0 0.0233,0.008 0.0202,0.0184 -0.009,0.0301 0.18412,0.24128 0.40219,0.43868 0.0175,0.0158 0.0697,0.0737 0.11599,0.12848 0.0463,0.0548 0.0927,0.0997 0.10319,0.0997 0.0105,0 0.0915,0.0743 0.18006,0.16518 0.0886,0.0908 0.15326,0.14441 0.14374,0.11902 -0.0126,-0.0335 -0.008,-0.043 0.0172,-0.0348 0.019,0.006 0.0381,0.0359 0.0425,0.0658 0.005,0.031 0.0342,0.0644 0.0688,0.0776 0.0334,0.0127 0.0551,0.0324 0.0481,0.0436 -0.0148,0.0239 0.12545,0.16155 0.2667,0.26189 0.0538,0.0382 0.13643,0.10464 0.18353,0.14757 0.0952,0.0867 0.33247,0.25529 0.35937,0.25529 0.009,0 0.0454,0.0264 0.0798,0.0587 0.0344,0.0323 0.10555,0.0814 0.15815,0.10911 0.25231,0.13306 0.47621,0.34657 0.36268,0.34584 -0.0233,-1.8e-4 -0.0753,-0.0259 -0.11572,-0.0572 z m -3.98678,-0.18401 c -0.0105,-0.017 -0.0126,-0.0376 -0.004,-0.0457 0.0219,-0.0219 0.0458,0.0103 0.034,0.0458 -0.008,0.0249 -0.0141,0.0249 -0.0295,-9e-5 z m 0.30805,-0.0301 c -0.0176,-0.0282 -0.0252,-0.0582 -0.0168,-0.0666 0.0179,-0.0179 0.0606,0.0431 0.0612,0.0873 4.3e-4,0.0423 -0.007,0.0386 -0.0444,-0.0207 z m 5.58749,-0.26679 c -0.008,-0.0135 -0.003,-0.0245 0.0108,-0.0245 0.0143,0 0.0259,0.011 0.0259,0.0245 0,0.0135 -0.005,0.0245 -0.0108,0.0245 -0.006,0 -0.0176,-0.011 -0.0259,-0.0245 z m 0.33706,0.004 c -0.0182,-0.0112 -0.0206,-0.0306 -0.007,-0.053 0.0184,-0.0297 0.0245,-0.0285 0.0384,0.008 0.0198,0.0517 0.007,0.0694 -0.0317,0.0452 z m -7.89643,-0.0653 c -0.0233,-0.0355 -0.029,-0.0612 -0.0136,-0.0612 0.0146,0 0.0197,-0.011 0.0114,-0.0245 -0.008,-0.0135 -0.003,-0.0245 0.0116,-0.0245 0.0147,0 0.033,0.0164 0.0407,0.0366 0.008,0.0201 0.0229,0.0311 0.0338,0.0243 0.0109,-0.007 0.0161,0.007 0.0116,0.0307 -0.005,0.0236 -0.009,0.0512 -0.0101,0.0613 -0.004,0.0377 -0.0465,0.0163 -0.0853,-0.0428 z m 1.43544,0.0436 c -0.0345,-0.0124 -0.0422,-0.0803 -0.009,-0.0803 0.0321,0 0.0818,0.0673 0.0593,0.0802 -0.0108,0.006 -0.0333,0.006 -0.0501,1.9e-4 z m 6.18548,-0.0248 c 1.9e-4,-0.0104 0.0123,-0.0353 0.0268,-0.0555 0.0215,-0.0299 0.0237,-0.0276 0.0118,0.0122 -0.0136,0.0455 -0.0123,0.046 0.0187,0.006 0.0183,-0.0236 0.0494,-0.0428 0.0689,-0.0428 0.0552,0 0.17563,-0.13814 0.15877,-0.18208 -0.008,-0.021 -0.005,-0.0382 0.007,-0.0382 0.0316,0 0.17025,-0.14335 0.14696,-0.15189 -0.0108,-0.004 -0.0112,-0.0527 -8.5e-4,-0.10844 0.0128,-0.0692 0.009,-0.11955 -0.0133,-0.15906 -0.0176,-0.0318 -0.0325,-0.0462 -0.0329,-0.032 -4.3e-4,0.0142 -0.0473,0.0268 -0.10411,0.0281 -0.0901,0.002 -0.0977,-0.002 -0.06,-0.0293 0.0238,-0.0174 0.0647,-0.026 0.091,-0.0191 0.0357,0.009 0.0478,7e-5 0.0478,-0.0365 0,-0.0269 0.0277,-0.0672 0.0616,-0.0894 0.0561,-0.0367 0.063,-0.0369 0.0766,-0.001 0.008,0.0214 0.0299,0.0332 0.0481,0.0262 0.0428,-0.0164 0.0829,0.0592 0.0829,0.15635 0,0.0968 -0.0488,0.19108 -0.1601,0.30907 -0.0484,0.0513 -0.094,0.12391 -0.10155,0.16145 -0.008,0.0375 -0.0233,0.0682 -0.0351,0.0682 -0.0118,0 -0.0215,0.0138 -0.0216,0.0306 -9e-5,0.0168 -0.0414,0.0538 -0.0918,0.0821 -0.10327,0.0581 -0.22636,0.0936 -0.22579,0.0652 z m 0.56247,-0.77461 c 0,-0.005 -0.0303,-0.0279 -0.0673,-0.0504 l -0.0673,-0.041 0.0578,0.0504 c 0.0564,0.0492 0.0768,0.0601 0.0768,0.041 z m -0.66685,0.36028 c 0.0168,-0.007 0.0444,-0.007 0.0612,0 0.0168,0.007 0.003,0.0123 -0.0306,0.0123 -0.0336,0 -0.0474,-0.006 -0.0306,-0.0123 z m -3.22408,-0.32639 c 0,-0.0135 0.0117,-0.0245 0.0259,-0.0245 0.0143,0 0.0191,0.011 0.0108,0.0245 -0.008,0.0135 -0.02,0.0245 -0.0259,0.0245 -0.006,0 -0.0108,-0.011 -0.0108,-0.0245 z m 0.0245,-0.0742 c 0,-0.0139 0.0193,-0.0323 0.0428,-0.0409 0.0752,-0.0274 0.17917,-0.12488 0.14644,-0.13724 -0.0166,-0.006 0.0166,-0.006 0.0738,10e-4 0.0645,0.008 0.10401,0.003 0.10401,-0.013 0,-0.0142 0.0338,-0.0332 0.0752,-0.0423 0.0413,-0.009 0.0698,-0.0219 0.0632,-0.0285 -0.0321,-0.0321 0.0755,-0.0935 0.14915,-0.085 0.0624,0.007 0.0795,7e-5 0.0795,-0.0329 0,-0.0273 0.0129,-0.0371 0.0367,-0.0279 0.0202,0.008 0.0367,0.005 0.0367,-0.006 0,-0.011 0.0226,-0.0461 0.0503,-0.078 0.038,-0.0438 0.0551,-0.0503 0.0698,-0.0265 0.0145,0.0235 0.081,0.0287 0.26169,0.0206 0.29327,-0.0132 0.53673,-0.069 0.60067,-0.13758 0.026,-0.0279 0.0561,-0.0507 0.0669,-0.0507 0.0108,0 0.0494,-0.0255 0.0857,-0.0567 0.0441,-0.0379 0.0607,-0.0704 0.05,-0.0982 -0.0122,-0.0319 -0.006,-0.0378 0.026,-0.0254 0.0244,0.009 0.0506,0.002 0.0626,-0.0174 0.0168,-0.0272 0.0237,-0.0257 0.0364,0.008 0.014,0.0366 0.0214,0.0353 0.0686,-0.0129 0.0629,-0.0642 0.11405,-0.079 0.11405,-0.0331 0,0.0581 -0.10724,0.19471 -0.22052,0.28082 -0.0912,0.0693 -0.11192,0.10035 -0.12208,0.18278 -0.0109,0.0884 -0.0243,0.10552 -0.12236,0.1559 -0.21496,0.11048 -0.40563,0.15496 -0.6643,0.15496 -0.17398,0 -0.28635,0.0137 -0.39508,0.0481 -0.0836,0.0265 -0.28363,0.065 -0.44458,0.0857 -0.3475,0.0445 -0.33138,0.0439 -0.33138,0.0123 z m -0.13459,-0.0482 c -0.008,-0.0135 0.001,-0.0245 0.0216,-0.0245 0.0202,0 0.0435,0.011 0.0518,0.0245 0.008,0.0135 -0.001,0.0245 -0.0216,0.0245 -0.0202,0 -0.0435,-0.011 -0.0518,-0.0245 z m -3.57599,-0.11011 c 0.009,-0.0404 0.0226,-0.10921 0.031,-0.15295 0.008,-0.0437 0.0234,-0.0795 0.0333,-0.0795 0.0208,0 -0.0369,0.26597 -0.0629,0.28998 -0.009,0.009 -0.0101,-0.0171 -0.001,-0.0575 z m 6.54924,0.0275 c 0,-0.005 0.0193,-0.0244 0.0428,-0.0428 0.0388,-0.0304 0.0397,-0.0296 0.009,0.009 -0.032,0.0408 -0.0521,0.0537 -0.0521,0.0336 z m 0.69743,-0.0152 c -0.008,-0.0135 -0.003,-0.0245 0.0108,-0.0245 0.0143,0 0.0259,0.011 0.0259,0.0245 0,0.0135 -0.005,0.0245 -0.0108,0.0245 -0.006,0 -0.0176,-0.011 -0.0259,-0.0245 z m -0.24366,-0.0717 c -0.008,-0.0125 -0.003,-0.0297 0.0108,-0.0381 0.0137,-0.008 0.0249,0.002 0.0249,0.0228 0,0.043 -0.0147,0.0493 -0.0357,0.0154 z m -0.49047,-0.0262 c -0.0193,-0.0312 0.0618,-0.0312 0.11012,0 0.0287,0.0185 0.0224,0.0238 -0.0292,0.0241 -0.0362,1.9e-4 -0.0726,-0.0106 -0.081,-0.0241 z m 0.30447,-0.0503 c -0.0276,-0.0174 -0.0281,-0.0224 -0.003,-0.0227 0.0209,-2.1e-4 0.01,-0.0277 -0.0306,-0.0757 -0.0662,-0.0787 -0.0847,-0.13657 -0.0336,-0.10497 0.0164,0.0101 0.0687,0.0247 0.11624,0.0324 0.0665,0.0108 0.0871,0.0262 0.0891,0.0665 0.001,0.0289 0.009,0.0683 0.0162,0.0877 0.0157,0.0411 -0.0971,0.0532 -0.15487,0.0167 z m 0.14107,-0.17778 c -0.0166,-0.0434 0.0715,-0.1 0.0955,-0.0613 0.0105,0.017 0.006,0.021 -0.0111,0.0103 -0.0179,-0.0111 -0.0282,0.001 -0.0282,0.0329 0,0.0562 -0.0369,0.0681 -0.0561,0.018 z m -0.0708,-0.0823 c 0.0177,-0.007 0.0388,-0.006 0.0469,0.002 0.008,0.008 -0.006,0.0139 -0.0321,0.0129 -0.0285,-10e-4 -0.0343,-0.007 -0.0148,-0.0148 z m -6.79842,-0.0675 c 0,-0.0329 0.009,-0.0653 0.02,-0.0721 0.011,-0.007 0.0153,0.0201 0.009,0.0597 -0.0128,0.0875 -0.0295,0.0945 -0.0295,0.0124 z m 6.88866,0.0108 c 0.008,-0.0135 0.02,-0.0245 0.0259,-0.0245 0.006,0 0.0108,0.011 0.0108,0.0245 0,0.0135 -0.0117,0.0245 -0.0259,0.0245 -0.0143,0 -0.0191,-0.011 -0.0108,-0.0245 z m -0.184,-0.0862 c -0.0259,-0.0312 -0.0243,-0.0347 0.009,-0.0219 0.0221,0.008 0.0402,0.0252 0.0402,0.0373 0,0.0315 -0.0142,0.0271 -0.0494,-0.0154 z m -0.32378,-0.0524 c 0.0168,-0.007 0.0444,-0.007 0.0612,0 0.0168,0.007 0.003,0.0123 -0.0306,0.0123 -0.0336,0 -0.0474,-0.006 -0.0306,-0.0123 z m 0.60998,-0.002 c -0.0114,-0.0193 0.0235,-0.12847 0.0411,-0.12847 0.006,0 0.0151,0.033 0.021,0.0734 0.007,0.0486 2.1e-4,0.0734 -0.0202,0.0734 -0.0171,0 -0.0359,-0.008 -0.0418,-0.0184 z m -0.6528,-0.0398 c 0,-0.005 0.0165,-0.0229 0.0367,-0.0397 0.0301,-0.025 0.0367,-0.0233 0.0367,0.009 0,0.0218 -0.0165,0.0397 -0.0367,0.0397 -0.0202,0 -0.0367,-0.004 -0.0367,-0.009 z m 0.73945,-0.11684 c 0.009,-0.0275 0.16832,-0.12446 0.18191,-0.11087 0.0158,0.0158 -0.0234,0.11285 -0.0411,0.1019 -0.0108,-0.007 -0.049,-8.5e-4 -0.085,0.0127 -0.0482,0.0183 -0.0628,0.0173 -0.0558,-0.004 z m -1.76725,-0.12008 c 0,-0.0143 0.011,-0.0191 0.0245,-0.0108 0.0135,0.008 0.0245,0.02 0.0245,0.0259 0,0.006 -0.011,0.0108 -0.0245,0.0108 -0.0135,0 -0.0245,-0.0117 -0.0245,-0.0259 z m 1.18848,0.003 c -0.026,-0.009 -0.0365,-0.0239 -0.0233,-0.032 0.0252,-0.0156 0.10205,0.0206 0.0821,0.0387 -0.006,0.006 -0.0328,0.003 -0.0588,-0.007 z m 0.0459,-0.063 c -0.046,-0.0362 -0.0456,-0.0372 0.0118,-0.0306 0.0326,0.004 0.0638,0.0206 0.0693,0.0374 0.0137,0.0416 -0.0236,0.0385 -0.0811,-0.007 z m 0.62649,-0.32149 c -0.0358,-0.0411 -0.0401,-0.0571 -0.0157,-0.0571 0.0187,0 0.0403,0.0166 0.0481,0.0369 0.008,0.0203 0.0269,0.0341 0.0424,0.0306 0.0155,-0.003 0.0327,0.006 0.0381,0.0202 0.0182,0.049 -0.0627,0.0271 -0.11283,-0.0306 z m -8.22337,-0.0175 c 0,-0.0202 0.011,-0.0435 0.0245,-0.0518 0.0135,-0.008 0.0245,10e-4 0.0245,0.0216 0,0.0202 -0.011,0.0435 -0.0245,0.0518 -0.0135,0.008 -0.0245,-10e-4 -0.0245,-0.0216 z m 8.04492,-0.15369 c 0.0168,-0.007 0.0444,-0.007 0.0612,0 0.0168,0.007 0.003,0.0123 -0.0306,0.0123 -0.0336,0 -0.0474,-0.006 -0.0306,-0.0123 z m -0.14071,-0.30192 c 0,-0.0307 0.026,-0.0307 0.0734,0 0.0297,0.0192 0.0262,0.0238 -0.0184,0.0241 -0.0303,1.9e-4 -0.0551,-0.0106 -0.0551,-0.0241 z m -2.23731,-0.38542 c 0.009,-0.1716 0.0261,-0.33685 0.0375,-0.36722 0.0157,-0.0417 -0.003,-0.10834 -0.0745,-0.27174 -0.0524,-0.1191 -0.10831,-0.26494 -0.12423,-0.3241 -0.0159,-0.0592 -0.045,-0.13784 -0.0646,-0.17485 -0.0439,-0.0828 -0.004,-0.0896 0.049,-0.008 0.0475,0.0725 0.16277,0.19846 0.16277,0.17788 0,-0.008 0.0246,-0.006 0.0547,0.005 0.0454,0.0168 0.0534,0.0357 0.047,0.11041 -0.0115,0.13392 0.0202,0.2986 0.0494,0.25639 0.0174,-0.0251 0.0201,-0.0213 0.0107,0.0151 -0.0217,0.0838 -0.084,0.45501 -0.11385,0.67908 -0.0157,0.11777 -0.0335,0.21412 -0.0396,0.21412 -0.006,0 -0.004,-0.1404 0.006,-0.312 z m -3.8805,0.18965 c 0,-0.0135 0.011,-0.0245 0.0245,-0.0245 0.0135,0 0.0245,0.011 0.0245,0.0245 0,0.0135 -0.011,0.0245 -0.0245,0.0245 -0.0135,0 -0.0245,-0.011 -0.0245,-0.0245 z m 1.74969,-0.31698 c -0.11068,-0.0151 -0.23247,-0.0877 -0.23247,-0.13855 0,-0.0186 -0.0148,-0.0339 -0.0329,-0.0339 -0.0463,0 -0.12202,-0.0894 -0.10249,-0.12104 0.0202,-0.0326 -0.007,-0.12368 -0.0368,-0.12368 -0.0121,0 -0.0157,0.0165 -0.008,0.0367 0.008,0.0202 0.003,0.0367 -0.0112,0.0367 -0.0358,0 -0.13526,-0.13176 -0.10663,-0.1413 0.0322,-0.0107 0.007,-0.0979 -0.0573,-0.2013 -0.0295,-0.0471 -0.0532,-0.0967 -0.0527,-0.11012 4.2e-4,-0.0135 -0.0193,-0.0283 -0.0438,-0.0331 -0.0321,-0.006 -0.0405,0.002 -0.03,0.0297 0.011,0.0287 -0.006,0.0422 -0.0691,0.054 -0.0812,0.0152 -0.20768,0.10808 -0.20768,0.15247 0,0.012 -0.0224,0.0477 -0.0497,0.0792 l -0.0497,0.0573 -0.0869,-0.0895 -0.0869,-0.0895 0.055,-0.0979 c 0.054,-0.0961 0.0542,-0.0996 0.0116,-0.19428 l -0.0435,-0.0964 0.0817,-0.0898 c 0.045,-0.0494 0.15078,-0.13908 0.23516,-0.1993 0.0844,-0.0602 0.15473,-0.12269 0.15632,-0.13883 0.006,-0.0609 -0.009,-0.10146 -0.0633,-0.17441 -0.0575,-0.0768 -0.20873,-0.40459 -0.20873,-0.45247 0,-0.0443 0.0439,-0.0297 0.0843,0.0279 0.0209,0.0299 0.0381,0.085 0.0381,0.12235 0,0.0517 0.0117,0.068 0.0489,0.068 0.0578,0 0.0631,-0.0453 0.013,-0.11156 -0.053,-0.0701 -0.0486,-0.11635 0.008,-0.0859 0.0251,0.0135 0.0518,0.0184 0.0592,0.011 0.007,-0.007 0.0269,0.0123 0.0432,0.0437 0.0417,0.08 0.0409,0.0796 0.0849,0.0356 0.0231,-0.0231 0.0798,-0.0396 0.13576,-0.0396 0.0529,0 0.0961,-0.0103 0.0961,-0.0228 0,-0.0388 0.0933,-0.0548 0.14822,-0.0254 0.0477,0.0255 0.0507,0.0231 0.0343,-0.0283 -0.0172,-0.0541 -0.0157,-0.0548 0.0392,-0.0184 0.0761,0.0505 0.0878,0.0948 0.025,0.0948 -0.028,0 -0.051,0.0103 -0.051,0.0229 0,0.0126 -0.0392,0.0166 -0.0871,0.009 -0.0708,-0.0115 -0.0939,-0.004 -0.12374,0.0382 -0.0202,0.0288 -0.0614,0.0524 -0.0916,0.0524 -0.0555,0 -0.11363,0.0409 -0.11363,0.08 0,0.0117 0.021,0.0146 0.0466,0.006 0.0337,-0.0107 0.0613,0.006 0.0995,0.0595 l 0.0529,0.0743 h -0.0506 c -0.0292,0 -0.0506,0.0159 -0.0506,0.0376 0,0.0648 0.0768,0.15821 0.13006,0.15821 0.0397,0 0.0445,0.007 0.0217,0.0294 -0.0696,0.0696 -0.001,0.0902 0.13828,0.0417 0.05,-0.0174 0.0771,-0.0432 0.0771,-0.0734 0,-0.0394 0.031,-0.0618 0.0561,-0.0404 0.004,0.003 0.0364,-0.013 0.0721,-0.0364 0.0367,-0.024 0.0711,-0.0326 0.0791,-0.0196 0.008,0.0126 -0.009,0.0355 -0.0377,0.0508 l -0.0519,0.0278 0.0552,0.0587 c 0.0606,0.0645 0.22265,0.10856 0.23735,0.0645 0.005,-0.0147 0.0266,-0.02 0.0483,-0.0116 0.0294,0.0113 0.0354,0.005 0.0237,-0.0259 -0.0212,-0.0551 0.0253,-0.0521 0.12405,0.008 0.0968,0.059 0.10341,0.0596 0.10341,0.01 0,-0.0234 0.0137,-0.0341 0.0337,-0.0264 0.0185,0.007 0.0459,6.4e-4 0.0608,-0.0141 0.0457,-0.0457 0.0619,0.002 0.0335,0.0982 -0.0255,0.0867 -0.0249,0.0887 0.0111,0.0367 0.057,-0.0824 0.1136,-0.072 0.10033,0.0184 -0.0113,0.0767 0.0212,0.0966 0.0729,0.0448 0.0218,-0.0218 0.0323,-0.0189 0.0442,0.0122 0.009,0.0224 0.0261,0.0408 0.0389,0.0408 0.0128,0 0.0165,-0.0111 0.008,-0.0246 -0.008,-0.0136 0.005,-0.0323 0.0291,-0.0416 0.0506,-0.0194 0.12838,-0.1052 0.12844,-0.14173 2e-5,-0.0135 -0.0146,-0.005 -0.0325,0.0184 -0.041,0.054 -0.12711,0.0556 -0.14743,0.003 -0.0211,-0.0551 -0.004,-0.0662 0.0957,-0.0624 0.0526,0.002 0.0861,-0.008 0.0865,-0.0266 4.2e-4,-0.0164 0.0117,-0.011 0.0251,0.0119 0.0308,0.0529 0.0965,0.0298 0.0965,-0.0339 0,-0.0533 0.039,-0.10008 0.104,-0.12471 0.0287,-0.0109 0.0428,-0.004 0.0428,0.0197 0,0.0198 0.0165,0.0359 0.0367,0.0359 0.0202,0 0.0367,0.009 0.0367,0.0196 0,0.0367 -0.0548,0.0745 -0.0889,0.0614 -0.0342,-0.0131 -0.10683,0.0315 -0.10683,0.0656 0,0.0101 0.0465,0.0245 0.10341,0.0321 0.10965,0.0147 0.17686,-0.0167 0.15542,-0.0725 -0.007,-0.018 -0.002,-0.0328 0.0111,-0.0328 0.0449,0 0.0236,-0.0677 -0.0252,-0.0805 -0.0753,-0.0197 -0.0651,-0.11526 0.0122,-0.11526 0.0353,0 0.0586,-0.0127 0.0551,-0.03 -0.003,-0.0165 0.0187,-0.0338 0.0489,-0.0384 0.0604,-0.009 0.0716,-0.0521 0.0256,-0.0981 -0.023,-0.023 -0.0126,-0.0275 0.047,-0.0206 0.0772,0.009 0.11045,-0.0295 0.0866,-0.10046 -0.0115,-0.034 -0.15304,-0.0428 -0.15304,-0.01 0,0.0251 -0.25436,0.12576 -0.31768,0.12576 -0.0464,0 -0.0838,-0.0621 -0.0603,-0.1001 0.0226,-0.0366 0.10876,-0.0252 0.10876,0.0144 0,0.0202 0.0165,0.0367 0.0367,0.0367 0.0202,0 0.034,-0.0123 0.0306,-0.0273 -0.003,-0.015 0.0136,-0.0307 0.0377,-0.0347 0.0241,-0.004 0.0662,-0.0358 0.0935,-0.0706 0.0273,-0.0348 0.0737,-0.0645 0.103,-0.066 0.0414,-0.002 0.0437,-0.005 0.0104,-0.014 -0.0522,-0.0136 -0.0573,-0.081 -0.006,-0.081 0.0202,0 0.0367,0.01 0.0367,0.0223 0,0.05 0.079,0.006 0.12516,-0.07 0.0396,-0.0652 0.0418,-0.0783 0.0111,-0.0665 -0.0211,0.008 -0.0383,0.005 -0.0383,-0.007 0,-0.0117 0.033,-0.0328 0.0734,-0.0469 0.0822,-0.0286 0.0984,-6.4e-4 0.0359,0.0618 -0.0206,0.0207 -0.0313,0.057 -0.0238,0.0809 0.009,0.0291 -0.001,0.0473 -0.0322,0.0553 -0.0483,0.0126 -0.0931,0.11877 -0.0462,0.10946 0.0663,-0.0131 0.0347,0.10412 -0.10001,0.3719 -0.0802,0.1593 -0.16919,0.3131 -0.19787,0.34178 -0.0287,0.0287 -0.0654,0.10172 -0.0816,0.16232 -0.0236,0.0883 -0.0632,0.14056 -0.19877,0.26294 -0.0931,0.084 -0.20335,0.18462 -0.24497,0.22355 -0.0416,0.0389 -0.11087,0.0855 -0.15389,0.10348 -0.043,0.018 -0.10373,0.0687 -0.13489,0.11274 -0.0742,0.10484 -0.15508,0.19943 -0.29002,0.33918 -0.11828,0.12249 -0.19386,0.14666 -0.37931,0.12132 z m 0.15244,-0.79901 c -0.008,-0.008 -0.0292,-0.009 -0.0469,-0.002 -0.0195,0.008 -0.0137,0.0136 0.0148,0.0148 0.0258,0.001 0.0403,-0.005 0.0321,-0.0129 z m 0.43619,-0.0118 c 0.0234,-0.0379 -0.0273,-0.0806 -0.0743,-0.0626 -0.0328,0.0126 -0.0342,0.0213 -0.008,0.0513 0.0385,0.0436 0.0603,0.0466 0.0821,0.0113 z m -0.46352,-0.13322 c 0.0223,-0.0341 0.0345,-0.0681 0.027,-0.0755 -0.007,-0.007 -0.0324,0.0152 -0.0555,0.0503 -0.0306,0.0467 -0.055,0.0598 -0.0907,0.0485 -0.0323,-0.0103 -0.0431,-0.006 -0.032,0.0116 0.0294,0.0476 0.10927,0.0291 0.1512,-0.0349 z m 0.54785,-0.001 c 0,-0.0213 -0.0131,-0.0344 -0.0291,-0.029 -0.0454,0.0151 -0.0529,0.0678 -0.01,0.0678 0.0213,0 0.0388,-0.0174 0.0388,-0.0387 z m -0.29933,-0.0591 c -0.0351,-0.0562 -0.0677,-0.064 -0.0677,-0.0163 0,0.0416 0.0237,0.0653 0.0655,0.0653 0.0267,0 0.0271,-0.009 0.002,-0.0489 z m -0.14115,-0.037 c 0,-0.0204 -0.0549,-0.0947 -0.1221,-0.16518 -0.0672,-0.0705 -0.12222,-0.13645 -0.12236,-0.14654 -1.8e-4,-0.0101 -0.047,-0.018 -0.10426,-0.0175 l -0.104,8.5e-4 0.0673,0.0551 c 0.037,0.0303 0.0905,0.0568 0.11897,0.059 0.0782,0.006 0.15032,0.0797 0.11706,0.11975 -0.0207,0.0249 -0.0122,0.0391 0.0368,0.0614 0.035,0.016 0.0637,0.0383 0.0637,0.0495 0,0.0113 0.011,0.0206 0.0245,0.0206 0.0135,0 0.0245,-0.0166 0.0245,-0.037 z m 0.30928,2.1e-4 c -0.0171,-0.0446 0.0118,-0.0478 0.056,-0.006 0.0261,0.0246 0.0303,0.0238 0.0218,-0.004 -0.0163,-0.0537 -0.091,-0.0933 -0.11242,-0.0596 -0.01,0.0153 -0.0397,0.0329 -0.0666,0.0391 -0.0452,0.0105 -0.0443,0.0134 0.0122,0.038 0.0852,0.0371 0.10534,0.0355 0.089,-0.007 z m -0.18858,-0.16518 c 0.0189,-0.0489 0.0232,-0.0503 0.0385,-0.0122 0.01,0.0236 0.032,0.0428 0.0499,0.0428 0.0673,0 0.0612,-0.0526 -0.0141,-0.12303 -0.0857,-0.08 -0.0972,-0.0855 -0.0972,-0.0461 0,0.0147 -0.0244,0.0464 -0.0543,0.0706 -0.0464,0.0376 -0.0495,0.0496 -0.0215,0.0834 0.0449,0.0541 0.0734,0.0496 0.0985,-0.0155 z m 0.35649,0.006 c -0.008,-0.0135 -0.0255,-0.0245 -0.0382,-0.0245 -0.0127,0 -0.023,0.011 -0.023,0.0245 0,0.0135 0.0172,0.0245 0.0382,0.0245 0.021,0 0.0314,-0.011 0.023,-0.0245 z m 0.5506,-0.0612 c 0,-0.0202 -0.006,-0.0367 -0.014,-0.0367 -0.008,0 -0.0305,0.0165 -0.0507,0.0367 -0.0326,0.0326 -0.0311,0.0367 0.014,0.0367 0.0288,0 0.0507,-0.0159 0.0507,-0.0367 z m -1.4438,-0.0122 c 0,-0.0135 -0.0172,-0.0245 -0.0382,-0.0245 -0.021,0 -0.0313,0.011 -0.023,0.0245 0.008,0.0135 0.0255,0.0245 0.0382,0.0245 0.0127,0 0.023,-0.011 0.023,-0.0245 z m 0.0979,-0.1713 c 0,-0.0135 -0.0117,-0.0245 -0.0259,-0.0245 -0.0143,0 -0.0191,0.011 -0.0108,0.0245 0.008,0.0135 0.02,0.0245 0.0259,0.0245 0.006,0 0.0108,-0.011 0.0108,-0.0245 z m -0.58731,-0.32892 c 0,-0.006 -0.011,-0.0176 -0.0245,-0.0259 -0.0135,-0.008 -0.0245,-0.003 -0.0245,0.0108 0,0.0142 0.011,0.0259 0.0245,0.0259 0.0135,0 0.0245,-0.005 0.0245,-0.0108 z m -1.68852,1.30779 c -0.0202,-0.013 -0.0257,-0.0237 -0.0122,-0.0237 0.0135,0 0.041,0.0107 0.0612,0.0237 0.0202,0.013 0.0257,0.0237 0.0122,0.0237 -0.0135,0 -0.041,-0.0107 -0.0612,-0.0237 z m 1.76193,-0.0749 c 0,-0.0143 0.011,-0.0191 0.0245,-0.0108 0.0135,0.008 0.0245,0.02 0.0245,0.0259 0,0.006 -0.011,0.0108 -0.0245,0.0108 -0.0135,0 -0.0245,-0.0117 -0.0245,-0.0259 z m 1.39945,-0.90552 c 0.006,-0.0177 0.0252,-0.0369 0.0428,-0.0428 0.0184,-0.006 0.0275,0.003 0.0214,0.0214 -0.006,0.0177 -0.0252,0.0369 -0.0428,0.0428 -0.0184,0.006 -0.0275,-0.003 -0.0214,-0.0214 z m -1.13736,-0.0964 c -0.007,-0.0269 -0.003,-0.0489 0.009,-0.0489 0.0122,0 0.0222,0.005 0.0222,0.0102 0,0.006 0.007,0.0277 0.0149,0.0489 0.008,0.0213 0.004,0.0387 -0.009,0.0387 -0.0133,0 -0.03,-0.022 -0.037,-0.0489 z m 1.40698,-0.0398 c -0.0173,-0.0185 -0.0227,-0.035 -0.0121,-0.0368 0.096,-0.0155 0.12406,-0.0113 0.11322,0.0169 -0.0184,0.0479 -0.0661,0.0573 -0.10111,0.0199 z m -0.91046,-0.0349 c 0,-0.0298 0.0608,-0.0559 0.0999,-0.0429 0.0154,0.005 -8.5e-4,0.0225 -0.0359,0.0385 -0.0401,0.0183 -0.0639,0.0199 -0.0639,0.004 z m 1.02779,-0.10739 c 0,-0.021 0.011,-0.0382 0.0245,-0.0382 0.0135,0 0.0245,0.0104 0.0245,0.023 0,0.0127 -0.011,0.0298 -0.0245,0.0382 -0.0135,0.008 -0.0245,-0.002 -0.0245,-0.023 z m 0.1713,0.0108 c 0,-0.0135 0.011,-0.0245 0.0245,-0.0245 0.0135,0 0.0245,0.011 0.0245,0.0245 0,0.0135 -0.011,0.0245 -0.0245,0.0245 -0.0135,0 -0.0245,-0.011 -0.0245,-0.0245 z m -0.28537,-0.23538 c 0.0382,-0.0207 0.0764,-0.0307 0.0849,-0.0222 0.0218,0.0218 -0.0469,0.0611 -0.10545,0.0604 -0.0404,-4.2e-4 -0.0368,-0.007 0.0205,-0.0383 z m -1.05257,-0.0701 c -0.0291,-0.0204 -0.0731,-0.0305 -0.0978,-0.0225 -0.0316,0.0102 -0.0355,0.008 -0.0134,-0.008 0.0358,-0.0258 -0.0686,-0.12338 -0.27553,-0.25777 -0.10223,-0.0664 -0.12283,-0.0924 -0.12848,-0.16239 l -0.007,-0.0833 0.0522,0.0466 c 0.0517,0.0462 0.052,0.0461 0.0355,-0.007 -0.0156,-0.0502 -0.0108,-0.0528 0.074,-0.039 0.0696,0.0113 0.0862,0.008 0.0715,-0.0163 -0.0244,-0.0394 0.0339,-0.0779 0.0911,-0.0601 0.0282,0.009 0.0428,2.2e-4 0.0428,-0.025 0,-0.0224 -0.021,-0.0383 -0.0505,-0.0383 -0.0342,0 -0.0484,-0.0138 -0.0441,-0.0428 0.004,-0.0236 -0.0123,-0.0781 -0.0352,-0.12115 -0.0534,-0.1006 -0.0523,-0.13503 0.008,-0.25302 0.0525,-0.10287 0.0695,-0.11128 0.14666,-0.0724 0.0267,0.0135 0.0705,0.0355 0.0972,0.049 0.0267,0.0135 0.0901,0.0245 0.14071,0.0246 0.11069,1.8e-4 0.26799,0.0411 0.28909,0.0753 0.0242,0.0392 -0.0293,0.0856 -0.13552,0.1174 -0.054,0.0162 -0.0982,0.0446 -0.0982,0.0631 0,0.0185 -0.0116,0.0376 -0.0259,0.0423 -0.0452,0.0151 -4.2e-4,0.0813 0.0867,0.12816 0.0583,0.0314 0.11102,0.0409 0.17191,0.0311 0.0794,-0.0129 0.0863,-0.01 0.0723,0.0345 -0.0141,0.0445 -0.007,0.0477 0.0844,0.0367 0.059,-0.007 0.0999,-0.002 0.0999,0.0127 0,0.0136 0.022,0.0178 0.0489,0.009 0.0375,-0.0119 0.0489,-0.004 0.0489,0.0321 0,0.0262 -0.0164,0.0612 -0.0364,0.0778 -0.02,0.0166 -0.0313,0.0385 -0.025,0.0487 0.006,0.0101 -0.0627,-0.009 -0.15322,-0.0417 -0.12386,-0.0453 -0.19189,-0.0566 -0.27474,-0.0457 -0.0606,0.008 -0.1855,0.0241 -0.27763,0.036 -0.18219,0.0234 -0.27,0.0769 -0.21563,0.1312 0.0209,0.0209 0.1017,0.0293 0.25225,0.0263 0.19466,-0.004 0.21599,-4.2e-4 0.17618,0.0298 -0.0249,0.0189 -0.068,0.0347 -0.0957,0.0351 -0.0277,4.3e-4 -0.0718,0.0164 -0.0979,0.0355 -0.0466,0.0341 -0.0464,0.0359 0.0102,0.0961 0.0715,0.0761 0.0624,0.13037 -0.013,0.0775 z m 0.13543,-0.6373 c 0.0328,-0.0328 -0.0473,-0.0624 -0.12799,-0.0473 -0.0901,0.0169 -0.11389,0.0452 -0.0583,0.0693 0.0328,0.0142 0.16572,-10e-4 0.18624,-0.0221 z m -0.79124,0.5768 c -0.008,-0.0129 -0.0298,-0.0175 -0.0485,-0.0103 -0.0188,0.007 -0.0458,-0.009 -0.0604,-0.0362 -0.0357,-0.0667 -0.0333,-0.078 0.0132,-0.0602 0.0345,0.0132 0.0356,0.008 0.009,-0.0427 l -0.031,-0.0579 -0.02,0.0542 c -0.0117,0.0315 -0.0408,0.0542 -0.0698,0.0542 -0.0279,0 -0.0497,0.0161 -0.0497,0.0367 0,0.0202 -0.01,0.0367 -0.0219,0.0367 -0.012,0 -0.0282,-0.0165 -0.0359,-0.0367 -0.008,-0.0202 -0.0356,-0.0367 -0.0618,-0.0367 -0.0334,0 -0.0527,-0.0226 -0.0643,-0.0752 -0.0226,-0.10287 -0.003,-0.11238 0.0781,-0.0374 0.0658,0.0611 0.13118,0.0839 0.12955,0.0453 -0.001,-0.0315 -0.0646,-0.10401 -0.0907,-0.10401 -0.0357,0 -0.09,-0.0714 -0.0697,-0.0917 0.009,-0.009 0.0273,-8.4e-4 0.0398,0.019 0.0363,0.0574 0.0253,-0.007 -0.0127,-0.0741 l -0.0345,-0.0612 -0.0308,0.0857 -0.0308,0.0857 -0.0286,-0.0979 c -0.0206,-0.0704 -0.0211,-0.10721 -0.002,-0.13112 0.0197,-0.0247 0.0165,-0.0405 -0.0123,-0.0616 -0.0213,-0.0156 -0.0464,-0.0734 -0.0557,-0.12846 -0.0281,-0.16633 -0.12835,-0.32949 -0.30727,-0.50009 -0.10208,-0.0973 -0.18832,-0.20501 -0.21617,-0.26988 -0.0255,-0.0594 -0.0809,-0.1624 -0.12318,-0.22897 -0.0871,-0.13728 -0.099,-0.25287 -0.0319,-0.31036 0.0928,-0.0795 0.27317,-0.0844 0.27317,-0.007 0,0.0454 0.0358,0.0447 0.0821,-0.002 0.0202,-0.0202 0.0485,-0.0367 0.0629,-0.0367 0.0144,0 0.0262,-0.0117 0.0262,-0.0259 0,-0.0143 -0.0121,-0.0184 -0.0269,-0.009 -0.0189,0.0117 -0.0187,10e-4 8.5e-4,-0.0353 0.0244,-0.0456 0.0211,-0.0522 -0.0282,-0.0548 -0.0308,-0.002 -0.0688,-0.001 -0.0847,6.3e-4 -0.0158,0.002 -0.0354,-0.0176 -0.0436,-0.0434 -0.0174,-0.0547 -0.10789,-0.0854 -0.14959,-0.0508 -0.0454,0.0376 -0.096,-0.10455 -0.0606,-0.1705 0.0151,-0.0281 0.0408,-0.0512 0.0571,-0.0512 0.0494,-7e-5 0.0459,-0.17087 -0.007,-0.32269 -0.0496,-0.14322 -0.0642,-0.32565 -0.0303,-0.37885 0.01,-0.0157 0.0732,-0.0497 0.14033,-0.0755 0.11849,-0.0455 0.12341,-0.0456 0.16495,-0.002 0.0394,0.0414 0.0396,0.045 0.002,0.045 -0.0519,0 -0.20427,0.16413 -0.20169,0.2172 10e-4,0.0256 0.006,0.0288 0.0143,0.009 0.007,-0.0169 0.0229,-0.0242 0.0358,-0.0162 0.0129,0.008 0.0372,0.003 0.054,-0.0108 0.0456,-0.0378 0.28387,-0.0276 0.26885,0.0115 -0.02,0.0522 -0.12965,0.11094 -0.17823,0.0955 -0.0343,-0.0109 -0.0441,-0.004 -0.0391,0.0293 0.004,0.0241 -0.005,0.0523 -0.0204,0.0626 -0.0422,0.0292 0.098,0.14249 0.15062,0.12175 0.0381,-0.015 0.0375,-0.0177 -0.006,-0.026 -0.0621,-0.0117 -0.0994,-0.0452 -0.0502,-0.0452 0.0204,0 0.0798,-0.0141 0.13217,-0.0314 0.0776,-0.0256 0.10007,-0.0478 0.12179,-0.12032 0.0248,-0.0827 0.024,-0.0855 -0.0114,-0.04 -0.0359,0.0462 -0.037,0.0441 -0.0193,-0.0367 0.0206,-0.0943 0.0212,-0.10648 0.0149,-0.27613 -0.004,-0.10616 -0.0124,-0.12182 -0.0909,-0.16813 -0.0797,-0.047 -0.15816,-0.15373 -0.15816,-0.2151 0,-0.0598 0.0976,-0.002 0.21399,0.12632 0.1069,0.11805 0.12969,0.13297 0.15551,0.10186 0.0867,-0.10442 0.23522,-0.0806 0.33282,0.0534 0.0495,0.068 0.051,0.0683 0.13218,0.029 0.0831,-0.0402 0.13654,-0.0348 0.0702,0.007 -0.0567,0.0358 0.0404,0.0304 0.10633,-0.006 0.0294,-0.0162 0.0699,-0.03 0.0901,-0.0306 0.0596,-0.002 0.038,-0.17414 -0.0357,-0.28562 -0.0715,-0.10802 -0.15833,-0.15187 -0.27429,-0.1385 -0.0654,0.008 -0.0743,0.003 -0.0564,-0.0308 0.0399,-0.0746 0.0943,-0.10291 0.16411,-0.0854 0.0654,0.0164 0.0838,0.0296 0.22276,0.15985 0.0694,0.065 0.19447,0.13745 0.20777,0.12035 0.004,-0.006 0.0312,-0.044 0.0596,-0.0852 0.0306,-0.0444 0.0891,-0.0864 0.14377,-0.10321 0.0507,-0.0156 0.0949,-0.0255 0.0982,-0.0222 0.0106,0.0106 -0.16016,0.18319 -0.19266,0.19478 -0.0171,0.006 -0.0241,0.0187 -0.0156,0.028 0.009,0.009 0.0526,-0.006 0.0979,-0.0333 0.0847,-0.0516 0.1308,-0.0648 0.11018,-0.0314 -0.022,0.0356 0.0248,0.18913 0.0556,0.18229 0.0207,-0.005 0.0279,0.0191 0.0224,0.0734 -0.006,0.0637 8.5e-4,0.0797 0.0348,0.0781 0.0236,-0.001 0.0821,-0.004 0.13012,-0.006 0.0778,-0.004 0.0857,-0.0101 0.0727,-0.0591 l -0.0146,-0.0551 0.0404,0.0551 c 0.0222,0.0303 0.0545,0.0551 0.0718,0.0551 0.0194,0 0.0265,0.0188 0.0186,0.0489 -0.0153,0.0584 -0.006,0.0596 0.10392,0.0134 0.0737,-0.0308 0.10029,-0.0309 0.19996,-8.9e-4 0.13329,0.0401 0.15192,0.0334 0.0891,-0.0321 -0.0608,-0.0635 -0.1403,-0.10282 -0.20763,-0.10282 -0.0435,0 -0.049,-0.006 -0.0257,-0.0297 0.0233,-0.0233 0.0468,-0.0228 0.1089,0.002 0.0436,0.0175 0.11223,0.0364 0.1526,0.0419 0.0404,0.006 0.0863,0.0149 0.10198,0.0208 0.0338,0.0127 0.0595,-0.0412 0.0365,-0.0765 -0.009,-0.0136 -0.0422,-0.0385 -0.0741,-0.0553 l -0.058,-0.0306 0.0527,-0.0526 c 0.0453,-0.0452 0.056,-0.0474 0.0757,-0.0159 0.0163,0.026 0.0125,0.039 -0.013,0.0446 -0.0683,0.015 -0.036,0.0523 0.0378,0.0437 0.0407,-0.005 0.0804,0.002 0.0883,0.0147 0.0195,0.0315 0.13886,-5.1e-4 0.16323,-0.0438 0.0108,-0.0191 0.0422,-0.0348 0.0699,-0.0348 0.0373,0 0.0465,0.0111 0.0354,0.0428 -0.0128,0.0368 -0.01,0.0363 0.021,-0.004 0.0198,-0.0255 0.0704,-0.0491 0.11253,-0.0524 0.085,-0.007 0.0834,-0.0253 0.0193,0.23045 -0.0274,0.10939 -0.0464,0.13804 -0.11179,0.16935 -0.0687,0.0329 -0.0921,0.0333 -0.18353,0.004 -0.0576,-0.0187 -0.11932,-0.0481 -0.13711,-0.0654 -0.0495,-0.048 -0.0924,-0.0377 -0.13882,0.0331 -0.029,0.0443 -0.0379,0.0911 -0.0283,0.14986 0.0165,0.10155 0.0358,0.12655 0.0633,0.082 0.0167,-0.0271 0.0221,-0.027 0.0314,7.2e-4 0.009,0.0271 0.0183,0.0275 0.0487,0.002 0.0325,-0.0268 0.0364,-0.021 0.0289,0.0428 -0.008,0.0702 0.0115,0.0935 0.0481,0.057 0.009,-0.009 0.039,-0.0184 0.0661,-0.0204 0.034,-0.003 0.0414,0.004 0.024,0.0217 -0.0447,0.0447 -0.027,0.0736 0.0194,0.0316 0.065,-0.0589 0.0951,-0.05 0.10711,0.0316 0.006,0.0397 0.001,0.0665 -0.009,0.0597 -0.011,-0.007 -0.02,-0.001 -0.02,0.0121 0,0.0456 0.0516,0.0567 0.12383,0.0268 0.0396,-0.0164 0.0719,-0.0395 0.0719,-0.0513 0,-0.0118 0.0172,-0.0215 0.0381,-0.0215 0.0344,0 0.0344,0.005 1.9e-4,0.0541 -0.0208,0.0297 -0.0628,0.0679 -0.0932,0.0848 -0.0348,0.0194 -0.0417,0.0309 -0.0186,0.0312 0.0507,7e-4 0.15567,-0.056 0.14408,-0.0778 -0.005,-0.01 0.0155,-0.0354 0.0461,-0.0568 0.0523,-0.0366 0.06,-0.0352 0.13035,0.024 0.0411,0.0346 0.0822,0.0626 0.0913,0.0621 0.038,-0.002 0.10343,-0.0697 0.0969,-0.10048 -0.005,-0.0237 0.0266,-0.0355 0.10921,-0.0408 0.10338,-0.007 0.11624,-0.002 0.11624,0.0428 -1e-5,0.0284 -0.016,0.0503 -0.0367,0.0503 -0.0202,0 -0.0587,0.022 -0.0857,0.049 -0.0607,0.0607 -0.067,0.11859 -0.008,0.0703 0.0362,-0.0294 0.0393,-0.0283 0.0252,0.009 -0.009,0.0236 -0.005,0.0428 0.009,0.0428 0.0138,0 0.0183,0.0111 0.01,0.0247 -0.008,0.0135 0.003,0.0317 0.0256,0.0403 0.0326,0.0125 0.0377,0.0353 0.0253,0.11268 -0.0172,0.10732 0.0132,0.16497 0.0868,0.16497 0.029,0 0.046,0.0173 0.046,0.047 0,0.0637 0.14339,0.0983 0.18174,0.0439 0.0144,-0.0205 0.042,-0.0597 0.0613,-0.0872 0.0193,-0.0275 0.0446,-0.0441 0.0562,-0.0369 0.029,0.0179 0.007,0.13596 -0.0631,0.333 -0.0321,0.0909 -0.0507,0.16518 -0.0413,0.16518 0.0437,0 0.009,0.0852 -0.0731,0.17861 -0.0496,0.0566 -0.10777,0.13585 -0.12922,0.17623 -0.0215,0.0404 -0.0679,0.10645 -0.10326,0.14682 -0.0579,0.0662 -0.0631,0.068 -0.0525,0.0184 0.0132,-0.0623 -0.0196,-0.0754 -0.0421,-0.0168 -0.008,0.021 -0.0251,0.0318 -0.0378,0.024 -0.0127,-0.008 -0.0331,0.004 -0.0454,0.0254 -0.0141,0.0253 -0.0637,0.043 -0.13609,0.0487 -0.12623,0.01 -0.12586,0.0104 -0.0845,-0.10402 0.0226,-0.0626 0.0228,-0.0996 6.3e-4,-0.1608 -0.0158,-0.0437 -0.034,-0.12034 -0.0404,-0.17022 -0.0113,-0.0882 -0.01,-0.09 0.0499,-0.0673 0.11066,0.0421 0.11145,0.0251 0.005,-0.099 -0.058,-0.0673 -0.12218,-0.12235 -0.14274,-0.12235 -0.0771,-3e-5 -0.14894,-0.0822 -0.25234,-0.28882 -0.0586,-0.11707 -0.11946,-0.25221 -0.13525,-0.30032 -0.0203,-0.0617 -0.0538,-0.0994 -0.11412,-0.12819 -0.047,-0.0224 -0.13333,-0.0849 -0.19191,-0.1389 -0.0674,-0.0621 -0.12987,-0.0982 -0.17015,-0.0982 -0.035,0 -0.12152,-0.0228 -0.19226,-0.0507 -0.10968,-0.0432 -0.1582,-0.0482 -0.32963,-0.034 -0.19449,0.0162 -0.20308,0.0147 -0.26494,-0.0472 -0.0352,-0.0352 -0.0727,-0.0639 -0.0834,-0.0639 -0.0107,0 -0.032,-0.0275 -0.0473,-0.0612 -0.0325,-0.0714 -0.10122,-0.0791 -0.18962,-0.0212 -0.0695,0.0455 -0.10647,0.0288 -0.06,-0.0272 0.0253,-0.0305 0.0245,-0.0373 -0.005,-0.0373 -0.0197,0 -0.0486,0.028 -0.0642,0.0623 -0.038,0.0834 -0.0363,0.0903 0.0186,0.0729 0.0407,-0.0129 0.046,-0.004 0.0396,0.0656 -0.0147,0.15955 -0.093,0.26876 -0.1622,0.22602 -0.0122,-0.008 -0.0223,2.8e-4 -0.0223,0.0174 0,0.0172 -0.0219,0.0536 -0.0486,0.081 -0.23346,0.2395 -0.43599,0.47423 -0.47147,0.54644 -0.0506,0.10295 -0.0551,0.14361 -0.0122,0.10794 0.1178,-0.0978 0.52292,-0.17939 0.62968,-0.12688 0.0204,0.0101 0.067,0.0322 0.10357,0.0493 0.0365,0.0171 0.0599,0.0416 0.0519,0.0545 -0.008,0.0129 6.4e-4,0.0329 0.0192,0.0444 0.032,0.0198 0.0506,0.23682 0.0266,0.30956 -0.0118,0.0357 -0.12243,-0.0138 -0.17668,-0.0792 -0.0522,-0.0629 -0.25935,-0.15877 -0.34314,-0.15877 -0.10162,0 -0.16247,0.0358 -0.20696,0.12187 -0.038,0.0735 -0.053,0.16123 -0.0182,0.10703 0.0293,-0.0458 0.22851,-0.0879 0.33508,-0.0709 0.0965,0.0154 0.32176,0.12896 0.29969,0.15103 -0.006,0.006 -0.0482,-0.0108 -0.0937,-0.0376 -0.0454,-0.0268 -0.12828,-0.056 -0.1841,-0.0649 -0.0898,-0.0143 -0.10342,-0.0101 -0.11827,0.0367 -0.0107,0.0338 -0.0333,0.0502 -0.0626,0.0456 -0.0252,-0.004 -0.0457,0.004 -0.0456,0.0172 1.2e-4,0.0135 0.0263,0.0225 0.0581,0.0201 0.0342,-0.003 0.0643,0.0122 0.0734,0.036 0.009,0.0222 0.008,0.0333 -1e-4,0.0247 -0.009,-0.009 -0.0378,0.007 -0.0649,0.0337 -0.0356,0.0356 -0.0725,0.0466 -0.13297,0.0395 -0.1335,-0.0156 -0.0833,0.0388 0.0596,0.0645 0.13449,0.0242 0.15973,0.0522 0.0752,0.0835 -0.0913,0.0338 -0.19077,0.003 -0.23545,-0.0724 -0.0631,-0.10682 -0.14031,-0.0813 -0.15866,0.0524 -0.005,0.0333 -0.0171,0.0746 -0.0279,0.0917 -0.0492,0.0785 0.0824,0.321 0.17517,0.32297 0.0176,4.2e-4 0.0246,0.0127 0.0155,0.0275 -0.0188,0.0304 0.0346,0.14671 0.0809,0.1763 0.0169,0.0108 0.0306,0.0355 0.0306,0.0551 0,0.0195 0.008,0.0355 0.0186,0.0355 0.0375,0 0.0827,0.10102 0.0584,0.1304 -0.028,0.0339 -0.002,0.19746 0.0452,0.28555 0.0221,0.0412 0.0365,0.0502 0.044,0.0278 0.006,-0.0183 -0.004,-0.0429 -0.0225,-0.0546 -0.0233,-0.0148 -0.0111,-0.0211 0.0398,-0.0208 0.0909,6.4e-4 0.17331,0.0666 0.17316,0.13867 -1.1e-4,0.0456 -0.01,0.0519 -0.0622,0.0395 -0.0341,-0.008 -0.0777,-0.027 -0.0969,-0.042 -0.0209,-0.0163 -0.0162,0.002 0.0118,0.0462 0.0426,0.0669 0.0428,0.0703 0.003,0.0386 -0.0405,-0.0321 -0.0427,-0.0298 -0.0275,0.0306 0.0163,0.0648 0.003,0.0872 -0.0249,0.0421 z m 2.7593,-1.9037 c 0.0173,-0.0324 -0.0975,-0.20904 -0.11617,-0.17882 -0.01,0.0154 -0.005,0.0431 0.0105,0.0615 0.0165,0.0199 0.0185,0.0392 0.005,0.0476 -0.0126,0.008 -0.0286,-0.008 -0.0356,-0.0345 -0.007,-0.0268 -0.0255,-0.0487 -0.0411,-0.0487 -0.0383,0 -0.007,0.10102 0.0432,0.14071 0.0431,0.0339 0.11911,0.0408 0.13436,0.0122 z m 0.16438,-0.17684 c 0,-0.0122 -0.011,-0.029 -0.0245,-0.0373 -0.0135,-0.008 -0.0245,-0.042 -0.0245,-0.0749 0,-0.0328 -0.005,-0.0597 -0.0102,-0.0597 -0.006,0 -0.0269,-0.006 -0.0473,-0.0142 -0.0458,-0.0176 -0.12055,0.11494 -0.098,0.17378 0.0302,0.0788 0.20443,0.0893 0.20443,0.0123 z m -0.50106,-0.3686 c 0.0103,-0.0167 -0.008,-0.0197 -0.0536,-0.009 -0.0938,0.0225 -0.10264,0.0343 -0.0259,0.0343 0.0351,0 0.0709,-0.0115 0.0795,-0.0255 z m 0.2074,-0.0124 c 0,-0.0289 -0.0463,-0.0289 -0.0574,7e-5 -0.009,0.0236 -0.002,0.0308 0.0219,0.0217 0.0195,-0.007 0.0355,-0.0173 0.0355,-0.0218 z m -3.16828,-0.39779 c -0.0165,-0.0164 -0.0864,0.0446 -0.0864,0.0754 0,0.0139 0.0221,0.005 0.0491,-0.0192 0.027,-0.0244 0.0438,-0.0497 0.0373,-0.0562 z m 2.50756,2.83364 c 0,-0.0145 0.0275,-0.0561 0.0612,-0.0924 0.0336,-0.0363 0.0612,-0.0835 0.0612,-0.10497 0,-0.0567 0.0274,-0.0752 0.065,-0.0439 0.0411,0.0341 0.042,0.0635 0.002,0.0771 -0.0168,0.006 -0.006,0.006 0.0245,0.001 0.0303,-0.005 0.0551,8.4e-4 0.0551,0.0132 0,0.0269 -0.06,0.052 -0.12436,0.052 -0.0258,0 -0.0469,0.0161 -0.0469,0.0359 0,0.0197 -0.022,0.0476 -0.0489,0.062 -0.0349,0.0187 -0.049,0.0186 -0.049,-1.9e-4 z m -0.1713,-0.0217 c 0,-0.0399 0.0918,-0.0811 0.11109,-0.0499 0.0195,0.0315 0.0147,0.0365 -0.056,0.0582 -0.0325,0.01 -0.0551,0.007 -0.0551,-0.008 z m -0.13459,-0.0515 c 0.008,-0.0135 0.02,-0.0245 0.0259,-0.0245 0.006,0 0.0108,0.011 0.0108,0.0245 0,0.0135 -0.0117,0.0245 -0.0259,0.0245 -0.0142,0 -0.0191,-0.011 -0.0108,-0.0245 z m -0.78308,-0.0245 c -0.008,-0.0135 -0.003,-0.0245 0.0108,-0.0245 0.0143,0 0.0259,0.011 0.0259,0.0245 0,0.0135 -0.005,0.0245 -0.0108,0.0245 -0.006,0 -0.0176,-0.011 -0.0259,-0.0245 z m 1.12901,-0.061 c 0.008,-0.0201 0.0241,-0.0304 0.0363,-0.0228 0.0256,0.0159 0.005,0.0593 -0.0281,0.0593 -0.0122,0 -0.016,-0.0165 -0.008,-0.0366 z m 0.31479,-0.15921 c -0.008,-0.0135 -0.001,-0.0245 0.015,-0.0245 0.0166,0 0.0503,-0.0183 0.075,-0.0406 0.0247,-0.0224 0.0519,-0.0336 0.0605,-0.0251 0.0153,0.0153 -0.0855,0.11227 -0.11841,0.11385 -0.009,4.2e-4 -0.0237,-0.0102 -0.032,-0.0237 z m 0.1713,0 c -0.0199,-0.0323 0.009,-0.0781 0.0384,-0.0601 0.0297,0.0184 0.0295,0.0846 -2.1e-4,0.0846 -0.0127,0 -0.0298,-0.011 -0.0382,-0.0245 z m -0.208,-0.0856 c 0,-0.0211 0.0221,-0.0367 0.0519,-0.0367 0.0434,0 0.0469,0.006 0.0215,0.0367 -0.0168,0.0202 -0.0401,0.0367 -0.0519,0.0367 -0.0118,0 -0.0215,-0.0165 -0.0215,-0.0367 z m -0.19577,-0.0108 c 0,-0.0127 0.011,-0.0298 0.0245,-0.0382 0.0135,-0.008 0.0245,0.002 0.0245,0.023 0,0.021 -0.011,0.0382 -0.0245,0.0382 -0.0135,0 -0.0245,-0.0104 -0.0245,-0.023 z m 0.42999,-0.0843 -0.0717,-0.0294 0.0579,-0.054 c 0.0319,-0.0297 0.0683,-0.054 0.0809,-0.054 0.0131,0 0.0163,-0.0421 0.007,-0.0979 -0.0148,-0.0924 -0.0122,-0.0979 0.0458,-0.0979 0.0714,0 0.0711,-0.002 0.0276,0.1618 -0.0512,0.19236 -0.0631,0.20615 -0.14789,0.17133 z m -0.12411,-0.33313 c 0.008,-0.0135 0.02,-0.0245 0.0259,-0.0245 0.006,0 0.0108,0.011 0.0108,0.0245 0,0.0135 -0.0117,0.0245 -0.0259,0.0245 -0.0143,0 -0.0191,-0.011 -0.0108,-0.0245 z m 0.0612,-0.0245 c 0,-0.0135 0.0117,-0.0245 0.0259,-0.0245 0.0143,0 0.0191,0.011 0.0108,0.0245 -0.008,0.0135 -0.02,0.0245 -0.0259,0.0245 -0.006,0 -0.0108,-0.011 -0.0108,-0.0245 z m 0.0734,-0.0953 c 0,-0.012 0.0174,-0.0285 0.0387,-0.0367 0.0599,-0.023 0.0678,-0.018 0.0347,0.0219 -0.0338,0.0407 -0.0734,0.0487 -0.0734,0.0149 z m -0.72172,-0.96672 c -0.1424,-0.24298 -0.39931,-0.30111 -0.60395,-0.13666 l -0.099,0.0795 -0.13806,-0.0335 c -0.0759,-0.0184 -0.14532,-0.0312 -0.15418,-0.0285 -0.009,0.003 -7e-5,-0.0271 0.0195,-0.0664 0.0196,-0.0393 0.0569,-0.0781 0.0829,-0.0864 0.026,-0.008 0.0448,-0.0273 0.0417,-0.0423 -0.003,-0.015 0.0431,-0.0361 0.10275,-0.0469 0.0596,-0.0108 0.11925,-0.0305 0.13256,-0.0438 0.0223,-0.0223 0.24098,-0.0146 0.37797,0.0132 0.0678,0.0138 0.0481,0.0581 -0.0269,0.0608 -0.0351,10e-4 -0.0168,0.0149 0.053,0.0396 0.12438,0.044 0.32181,0.22263 0.32126,0.29074 -8.5e-4,0.11505 -0.0424,0.11527 -0.10956,6.4e-4 z m -0.69762,0.0625 c 0,-0.0453 0.0941,-0.10139 0.21289,-0.12686 0.14327,-0.0307 0.28439,-0.004 0.37823,0.0723 0.0904,0.0733 0.0399,0.0816 -0.0868,0.0142 -0.13908,-0.0739 -0.17645,-0.0763 -0.21025,-0.0131 -0.0219,0.0409 -0.0349,0.0441 -0.0855,0.021 -0.0475,-0.0217 -0.0722,-0.019 -0.12103,0.013 -0.0691,0.0453 -0.0875,0.0494 -0.0875,0.0195 z m 2.05763,-0.30438 c 0.006,-0.004 0.0297,-0.0219 0.0536,-0.0402 0.0378,-0.0289 0.0414,-0.028 0.028,0.007 -0.008,0.0221 -0.0326,0.0402 -0.0536,0.0402 -0.021,0 -0.0336,-0.003 -0.028,-0.007 z m -0.0764,-0.23835 c -0.0244,-0.0151 -0.0153,-0.025 0.0339,-0.0374 0.0821,-0.0206 0.10232,-0.006 0.0432,0.0305 -0.0253,0.0158 -0.0579,0.0187 -0.0771,0.007 z m -0.13685,-0.58257 c -0.0224,-0.0595 -0.0156,-0.0756 0.0662,-0.15591 l 0.0912,-0.0896 -0.0238,0.0863 c -0.0131,0.0475 -0.0429,0.11764 -0.0662,0.15591 l -0.0423,0.0696 z m -0.69426,-0.0531 c -0.0332,-0.0251 -0.052,-0.054 -0.0418,-0.0643 0.0103,-0.0103 0.0425,0.005 0.0717,0.0344 0.0292,0.0292 0.048,0.0581 0.0418,0.0643 -0.006,0.006 -0.0384,-0.009 -0.0717,-0.0344 z m 0.0596,-0.17384 c -0.007,-0.0121 0.009,-0.0219 0.0368,-0.0219 0.0277,0 0.0504,-0.011 0.0504,-0.0245 0,-0.0135 0.0269,-0.0245 0.0597,-0.0245 0.0526,0 0.12068,0.048 0.0702,0.0495 -0.0109,3.1e-4 -0.0612,0.0102 -0.1117,0.0219 -0.0535,0.0124 -0.0976,0.0122 -0.10544,-5.7e-4 z m 0.47914,0.009 c 8.4e-4,-0.0353 0.037,-0.0699 0.1295,-0.12345 0.10416,-0.0603 0.11483,-0.0633 0.11483,-0.0321 0,0.0446 -0.14374,0.17388 -0.19335,0.17388 -0.0282,0 -0.0512,-0.008 -0.051,-0.0184 z m -3.74448,-0.17742 c 0.0202,-0.013 0.0477,-0.0237 0.0612,-0.0237 0.0135,0 0.008,0.0107 -0.0122,0.0237 -0.0202,0.0131 -0.0477,0.0237 -0.0612,0.0237 -0.0135,0 -0.008,-0.0107 0.0122,-0.0237 z m -0.0333,-0.0612 c 0.008,-0.0202 0.0308,-0.0367 0.0512,-0.0367 0.0302,0 0.0314,0.007 0.007,0.0367 -0.0168,0.0202 -0.0398,0.0367 -0.0512,0.0367 -0.0114,0 -0.0144,-0.0165 -0.007,-0.0367 z m 0.43941,-0.033 c -0.008,-0.0127 0.004,-0.03 0.0258,-0.0385 0.0541,-0.0208 0.0667,-0.003 0.0236,0.0324 -0.0209,0.0174 -0.0409,0.0198 -0.0494,0.006 z m 3.19118,-0.004 c 0,-0.0135 0.0117,-0.0245 0.0259,-0.0245 0.0142,0 0.0191,0.011 0.0108,0.0245 -0.008,0.0135 -0.02,0.0245 -0.0259,0.0245 -0.006,0 -0.0108,-0.011 -0.0108,-0.0245 z m -3.52386,-0.023 c 0,-0.0127 0.011,-0.0298 0.0245,-0.0382 0.0135,-0.008 0.0245,0.002 0.0245,0.023 0,0.021 -0.011,0.0382 -0.0245,0.0382 -0.0135,0 -0.0245,-0.0104 -0.0245,-0.023 z m 0.26831,-0.0789 c -0.028,-0.0546 -0.0274,-0.0553 0.0149,-0.0149 0.0243,0.0232 0.0375,0.0489 0.0293,0.0571 -0.008,0.008 -0.0281,-0.0108 -0.0442,-0.0422 z m 1.55663,0.007 c -0.008,-0.0123 0.003,-0.0286 0.0228,-0.0363 0.0201,-0.008 0.0366,-0.004 0.0366,0.008 0,0.0332 -0.0435,0.0538 -0.0593,0.0281 z m -1.61693,-0.10085 c -0.008,-0.0135 -0.004,-0.0245 0.009,-0.0245 0.0135,0 0.0313,0.011 0.0396,0.0245 0.008,0.0135 0.004,0.0245 -0.009,0.0245 -0.0135,0 -0.0313,-0.011 -0.0396,-0.0245 z m 0.23248,-0.0272 c 0,-0.0125 -0.027,-0.0654 -0.0599,-0.11755 l -0.0599,-0.0949 0.0538,-0.0144 c 0.0963,-0.0258 0.11926,-0.0182 0.10272,0.0339 -0.0109,0.0342 -0.004,0.0489 0.0214,0.0489 0.0203,0 0.0448,0.0127 0.0544,0.0282 0.0108,0.0175 0.007,0.0216 -0.0108,0.0108 -0.0155,-0.01 -0.0282,-0.006 -0.0282,0.007 0,0.0135 0.0112,0.0314 0.0249,0.0398 0.0137,0.008 0.0194,0.0243 0.0126,0.0352 -0.0184,0.0298 -0.1109,0.049 -0.1109,0.023 z m -0.37523,-0.0135 c -0.009,-0.009 -0.0163,-0.0277 -0.0163,-0.0416 0,-0.0153 0.0114,-0.0139 0.0289,0.004 0.0159,0.0159 0.0233,0.0346 0.0163,0.0416 -0.007,0.007 -0.02,0.005 -0.029,-0.004 z m 0.11306,-0.0637 c -0.0191,-0.0419 -0.0178,-0.0679 0.005,-0.0992 0.0294,-0.0401 0.032,-0.0401 0.0498,0.001 0.0489,0.11342 -0.004,0.20878 -0.0549,0.0981 z m 1.6035,0.0144 c 0.0177,-0.007 0.0388,-0.006 0.0469,0.002 0.008,0.008 -0.006,0.0139 -0.0321,0.0129 -0.0285,-0.001 -0.0343,-0.007 -0.0148,-0.0148 z m 0.15141,-0.02 c -0.0798,-0.0307 -0.0812,-0.0331 -0.0213,-0.0349 0.0354,-0.001 0.078,0.0147 0.0948,0.0349 0.0355,0.0427 0.0375,0.0427 -0.0734,0 z m 0.8572,-0.0358 c -0.0198,-0.0125 -0.0278,-0.031 -0.0178,-0.041 0.01,-0.01 0.0368,3.8e-4 0.0596,0.0231 0.0442,0.0442 0.0177,0.0555 -0.0418,0.0178 z m -2.08076,-0.12331 c 0,-0.0135 0.0117,-0.0245 0.0259,-0.0245 0.0142,0 0.0191,0.011 0.0108,0.0245 -0.008,0.0135 -0.02,0.0245 -0.0259,0.0245 -0.006,0 -0.0108,-0.011 -0.0108,-0.0245 z m 2.54501,-0.0108 c 0,-0.0194 0.01,-0.0414 0.0222,-0.049 0.0122,-0.008 0.0164,0.008 0.009,0.0353 -0.0149,0.0571 -0.0316,0.0644 -0.0316,0.0137 z m -0.28142,-0.0762 -0.0734,-0.0358 0.0826,0.0125 c 0.0454,0.007 0.0977,0.0125 0.11624,0.0125 0.0185,0 0.0336,0.011 0.0336,0.0245 0,0.0347 -0.073,0.0284 -0.15906,-0.0136 z m 0.0268,-0.0561 c -0.007,-0.0114 0.02,-0.0217 0.0602,-0.0229 0.0402,-10e-4 0.0667,0.008 0.0589,0.0208 -0.0176,0.0285 -0.1018,0.03 -0.11906,0.002 z m -1.517,-0.38866 c -0.007,-0.007 -0.008,-0.0229 -4.2e-4,-0.0345 0.0191,-0.0309 0.17568,-0.0257 0.19562,0.007 0.0104,0.0168 0.004,0.0231 -0.0169,0.016 -0.0187,-0.006 -0.0635,-0.003 -0.0995,0.007 -0.036,0.0102 -0.0715,0.0124 -0.0789,0.005 z"
       id="path834"
       inkscape:connector-curvature="0" />
    <text
       xml:space="preserve"
       style="font-style:normal;font-variant:normal;font-weight:normal;font-stretch:normal;font-size:5.48364162px;line-height:1.25;font-family:'Cormorant Upright';-inkscape-font-specification:'Cormorant Upright, Normal';font-variant-ligatures:normal;font-variant-caps:normal;font-variant-numeric:normal;font-feature-settings:normal;text-align:center;letter-spacing:0px;word-spacing:0px;writing-mode:lr-tb;text-anchor:middle;fill:#ffffff;fill-opacity:1;stroke:none;stroke-width:0.31013256"
       x="119.58646"
       y="134.47983"
       id="text817"><tspan
         sodipodi:role="line"
         id="tspan860"
         x="120.22907"
         y="134.47983"
         style="stroke-width:0.31013256">STOIC </tspan><tspan
         sodipodi:role="line"
         id="tspan862"
         x="119.58646"
         y="141.33438"
         style="stroke-width:0.31013256">QUOTES</tspan></text>
    <rect
       style="opacity:1;fill:none;fill-opacity:1;stroke:#ffffff;stroke-width:0.16828097;stroke-linecap:butt;stroke-linejoin:miter;stroke-miterlimit:4;stroke-dasharray:none;stroke-dashoffset:0;stroke-opacity:1"
       id="rect864"
       width="24.120272"
       height="29.729641"
       x="107.50139"
       y="113.97358" />
  </g>
</svg>
